<svg width="34" height="34" viewBox="0 0 34 34" fill="none" xmlns="http://www.w3.org/2000/svg">
<path fill-rule="evenodd" clip-rule="evenodd" d="M12.6714 24.9093C10.4596 27.1813 6.87285 27.1813 4.66248 24.9093L2.65884 22.854C0.447053 20.5806 0.447053 16.8962 2.65884 14.6257L9.66803 7.42568C11.8784 5.15368 15.4665 5.15368 17.6769 7.42568L19.6806 9.48386C21.8923 11.7544 21.8923 15.4388 19.6806 17.7108L12.6714 24.9093Z" stroke="#242426" stroke-linejoin="round"/>
<path d="M15.1736 5.88184L6.66341 14.6251C5.55751 15.7611 5.55751 17.604 6.66341 18.7386L8.66563 20.7968C9.77294 21.9313 11.5642 21.9313 12.6701 20.7968L21.1816 12.0535" stroke="#242426" stroke-linejoin="round"/>
<path fill-rule="evenodd" clip-rule="evenodd" d="M10.6682 18.7384L8.66602 16.6817L10.6682 14.625L12.6705 16.6817L10.6682 18.7384Z" stroke="#242426" stroke-linejoin="round"/>
<path fill-rule="evenodd" clip-rule="evenodd" d="M14.6741 14.6252L12.6719 12.5684L14.6741 10.5117L16.6763 12.5684L14.6741 14.6252Z" stroke="#242426" stroke-linejoin="round"/>
<path fill-rule="evenodd" clip-rule="evenodd" d="M25.9198 5.36364C25.9198 7.77383 24.0167 9.72729 21.6718 9.72729C19.3255 9.72729 17.4238 7.77383 17.4238 5.36364C17.4238 2.95491 19.3255 1 21.6718 1C24.0167 1 25.9198 2.95491 25.9198 5.36364Z" stroke="#242426" stroke-linejoin="round"/>
<path fill-rule="evenodd" clip-rule="evenodd" d="M31.5839 8.27281C31.5839 10.683 29.6808 12.6364 27.3359 12.6364C24.9896 12.6364 23.0879 10.683 23.0879 8.27281C23.0879 5.86409 24.9896 3.90918 27.3359 3.90918C29.6808 3.90918 31.5839 5.86409 31.5839 8.27281Z" stroke="#242426" stroke-linejoin="round"/>
<path fill-rule="evenodd" clip-rule="evenodd" d="M24.5039 18.4545C24.5039 16.8487 25.7726 15.5454 27.3359 15.5454H30.1679C31.7326 15.5454 32.9999 16.8487 32.9999 18.4545V22.8181H24.5039V18.4545Z" stroke="#242426" stroke-linejoin="round"/>
<path fill-rule="evenodd" clip-rule="evenodd" d="M30.1679 22.8184H27.3359V30.0911L28.8114 33.0002L30.1679 30.0911V22.8184Z" stroke="#242426" stroke-linejoin="round"/>
<path d="M28.752 17.7273V10.4546" stroke="#242426" stroke-linecap="round" stroke-linejoin="round"/>
</svg>
