<svg width="30" height="34" viewBox="0 0 30 34" fill="none" xmlns="http://www.w3.org/2000/svg">
<path d="M28.0102 13.8484C28.0102 13.8484 25.5642 16.2944 22.5731 19.2855C19.5848 22.2738 14.4691 22.0515 11.2083 18.7907C7.9474 15.5284 7.72377 10.4128 10.7149 7.42308C13.7046 4.43477 16.1506 1.98877 16.1506 1.98877" stroke="#242426" stroke-linecap="round" stroke-linejoin="round"/>
<path d="M16.1504 1.98828L28.01 13.8478" stroke="#242426" stroke-linecap="round" stroke-linejoin="round"/>
<path d="M19.1152 4.95271L23.068 1" stroke="#242426" stroke-linecap="round" stroke-linejoin="round"/>
<path d="M25.0449 10.8819L28.9977 6.9292" stroke="#242426" stroke-linecap="round" stroke-linejoin="round"/>
<path d="M16.1504 5.94092L24.0559 13.8478" stroke="#242426" stroke-linecap="round" stroke-linejoin="round"/>
<path fill-rule="evenodd" clip-rule="evenodd" d="M17.1374 15.8245C16.3184 16.6436 14.992 16.6436 14.1729 15.8245C13.3538 15.004 13.3538 13.6776 14.1729 12.8599C14.992 12.0408 16.3184 12.0408 17.1374 12.8599C17.9565 13.6776 17.9565 15.004 17.1374 15.8245Z" stroke="#242426" stroke-linecap="round" stroke-linejoin="round"/>
<path d="M12.8608 20.1022L9.72432 23.2373L6.75977 20.2727L9.89484 17.1362" stroke="#242426" stroke-linecap="round" stroke-linejoin="round"/>
<path d="M8.24261 21.7554L1.81871 28.1793C0.727096 29.2709 0.727096 31.0404 1.81871 32.132C2.91033 33.2236 4.67984 33.2236 5.77145 32.132L10.219 27.6845C11.038 26.8654 12.3659 26.8654 13.1849 27.6845C14.0026 28.5035 14.0026 29.83 13.1849 30.649L10.834 33" stroke="#242426" stroke-linecap="round" stroke-linejoin="round"/>
</svg>
