<svg width="34" height="26" viewBox="0 0 34 26" fill="none" xmlns="http://www.w3.org/2000/svg">
<path d="M3.78261 20.7648C2.24522 20.7648 1 19.4998 1 17.9412C1 16.3826 2.24522 15.1177 3.78261 15.1177" stroke="#242426" stroke-linecap="round" stroke-linejoin="round"/>
<path fill-rule="evenodd" clip-rule="evenodd" d="M9.34842 25H6.56581C5.02842 25 3.7832 23.735 3.7832 22.1764V13.7059C3.7832 12.1473 5.02842 10.8823 6.56581 10.8823H9.34842V25Z" stroke="#242426" stroke-linecap="round" stroke-linejoin="round"/>
<path d="M30.2168 20.7648C31.7528 20.7648 32.9994 19.4998 32.9994 17.9412C32.9994 16.3826 31.7528 15.1177 30.2168 15.1177" stroke="#242426" stroke-linecap="round" stroke-linejoin="round"/>
<path fill-rule="evenodd" clip-rule="evenodd" d="M24.6523 25H27.435C28.971 25 30.2176 23.735 30.2176 22.1764V13.7059C30.2176 12.1473 28.971 10.8823 27.435 10.8823H24.6523V25Z" stroke="#242426" stroke-linecap="round" stroke-linejoin="round"/>
<path d="M7.26172 10.8823C7.26172 5.42447 11.6221 1 17.0009 1C22.3782 1 26.74 5.42447 26.74 10.8823" stroke="#242426" stroke-linejoin="round"/>
</svg>
