<svg width="26" height="34" viewBox="0 0 26 34" fill="none" xmlns="http://www.w3.org/2000/svg">
<path fill-rule="evenodd" clip-rule="evenodd" d="M25.2558 3.78265C25.2558 2.24663 23.8975 1 22.2238 1H4.03197C2.35832 1 1 2.24663 1 3.78265V20.4786C1 22.0146 2.35832 23.2612 4.03197 23.2612H22.2238C23.8975 23.2612 25.2558 22.0146 25.2558 20.4786V3.78265Z" stroke="#242426" stroke-linejoin="round"/>
<path d="M13.127 23.2612V28.1309" stroke="#242426" stroke-linecap="round" stroke-linejoin="round"/>
<path d="M13.1048 28.1523L7.08789 32.9997" stroke="#242426" stroke-linecap="round" stroke-linejoin="round"/>
<path d="M13.1035 28.1523L19.1205 32.9997" stroke="#242426" stroke-linecap="round" stroke-linejoin="round"/>
<path fill-rule="evenodd" clip-rule="evenodd" d="M19.9505 14.2175C19.9505 17.675 16.8958 20.4785 13.1286 20.4785C9.36135 20.4785 6.30664 17.675 6.30664 14.2175C6.30664 10.7601 9.36135 7.95654 13.1286 7.95654C16.8958 7.95654 19.9505 10.7601 19.9505 14.2175Z" stroke="#242426" stroke-linejoin="round"/>
<path fill-rule="evenodd" clip-rule="evenodd" d="M16.1596 14.2177C16.1596 15.7537 14.8013 17.0003 13.1277 17.0003C11.454 17.0003 10.0957 15.7537 10.0957 14.2177C10.0957 12.6817 11.454 11.4351 13.1277 11.4351C14.8013 11.4351 16.1596 12.6817 16.1596 14.2177Z" stroke="#242426" stroke-linejoin="round"/>
<path fill-rule="evenodd" clip-rule="evenodd" d="M20.7074 4.47836C20.7074 4.86236 20.3678 5.17401 19.9494 5.17401C19.531 5.17401 19.1914 4.86236 19.1914 4.47836C19.1914 4.09576 19.531 3.78271 19.9494 3.78271C20.3678 3.78271 20.7074 4.09576 20.7074 4.47836Z" stroke="#242426" stroke-linejoin="round"/>
<path fill-rule="evenodd" clip-rule="evenodd" d="M7.06481 4.47836C7.06481 4.86236 6.72523 5.17401 6.30682 5.17401C5.88841 5.17401 5.54883 4.86236 5.54883 4.47836C5.54883 4.09576 5.88841 3.78271 6.30682 3.78271C6.72523 3.78271 7.06481 4.09576 7.06481 4.47836Z" stroke="#242426" stroke-linejoin="round"/>
</svg>
