<svg width="18" height="34" viewBox="0 0 18 34" fill="none" xmlns="http://www.w3.org/2000/svg">
<path d="M9 24.6523V33.0002" stroke="#242426" stroke-linecap="round" stroke-linejoin="round"/>
<path d="M1 32.9998L9 25.3477" stroke="#242426" stroke-linecap="round" stroke-linejoin="round"/>
<path d="M17 32.9998L9 25.3477" stroke="#242426" stroke-linecap="round" stroke-linejoin="round"/>
<path d="M10.3327 16.3042V23.9564C10.3327 24.339 10.0327 24.6521 9.66602 24.6521H8.33268C7.96602 24.6521 7.66602 24.339 7.66602 23.9564V16.3042" stroke="#242426" stroke-linecap="round" stroke-linejoin="round"/>
<path d="M5 16.3042H13" stroke="#242426" stroke-linecap="round" stroke-linejoin="round"/>
<path fill-rule="evenodd" clip-rule="evenodd" d="M17 12.1304C17 12.8984 16.404 13.5217 15.6667 13.5217H2.33333C1.596 13.5217 1 12.8984 1 12.1304V3.7826C1 3.01321 1.596 2.3913 2.33333 2.3913H7.66667C8.04133 1.60939 8.268 1 9.15733 1H12.176C13.0653 1 13.292 1.60939 13.6667 2.3913H15.6667C16.404 2.3913 17 3.01321 17 3.7826V12.1304Z" stroke="#242426" stroke-linejoin="round"/>
<path fill-rule="evenodd" clip-rule="evenodd" d="M12.9993 7.95646C12.9993 9.49247 11.806 10.7391 10.3327 10.7391C8.85935 10.7391 7.66602 9.49247 7.66602 7.95646C7.66602 6.41906 8.85935 5.17383 10.3327 5.17383C11.806 5.17383 12.9993 6.41906 12.9993 7.95646Z" stroke="#242426" stroke-linejoin="round"/>
<path fill-rule="evenodd" clip-rule="evenodd" d="M3 2.39132H3.66667V1H3V2.39132Z" stroke="#242426" stroke-linejoin="round"/>
</svg>
