<svg width="26" height="34" viewBox="0 0 26 34" fill="none" xmlns="http://www.w3.org/2000/svg">
<path fill-rule="evenodd" clip-rule="evenodd" d="M25 30.2174C25 31.7534 23.7365 33 22.1765 33H3.82353C2.26635 33 1 31.7534 1 30.2174V3.78261C1 2.24661 2.26635 1 3.82353 1H22.1765C23.7365 1 25 2.24661 25 3.78261V30.2174Z" stroke="#242426" stroke-linecap="round" stroke-linejoin="round"/>
<path fill-rule="evenodd" clip-rule="evenodd" d="M3.82422 27.4347H22.1772V5.17383H3.82422V27.4347Z" stroke="#242426" stroke-linecap="round" stroke-linejoin="round"/>
<path fill-rule="evenodd" clip-rule="evenodd" d="M13.0008 2.3916C12.6112 2.3916 12.2949 2.70325 12.2949 3.08725C12.2949 3.47125 12.6112 3.78291 13.0008 3.78291C13.3905 3.78291 13.7067 3.47125 13.7067 3.08725C13.7067 2.70325 13.3905 2.3916 13.0008 2.3916Z" fill="#242426"/>
<path fill-rule="evenodd" clip-rule="evenodd" d="M13.7067 30.2171C13.7067 30.6011 13.3905 30.9128 13.0008 30.9128C12.6112 30.9128 12.2949 30.6011 12.2949 30.2171C12.2949 29.8331 12.6112 29.5215 13.0008 29.5215C13.3905 29.5215 13.7067 29.8331 13.7067 30.2171Z" fill="#242426" stroke="#242426" stroke-linejoin="round"/>
</svg>
