<svg width="22" height="34" viewBox="0 0 22 34" fill="none" xmlns="http://www.w3.org/2000/svg">
<path fill-rule="evenodd" clip-rule="evenodd" d="M21 30.2174C21 31.7534 19.8053 33 18.3333 33H3.66667C2.19467 33 1 31.7534 1 30.2174V3.78261C1 2.24661 2.19467 1 3.66667 1H18.3333C19.8053 1 21 2.24661 21 3.78261V30.2174Z" stroke="#242426" stroke-linecap="round" stroke-linejoin="round"/>
<path d="M21 6.56543H1" stroke="#242426" stroke-linecap="round" stroke-linejoin="round"/>
<path d="M21 27.4346H1" stroke="#242426" stroke-linecap="round" stroke-linejoin="round"/>
<path d="M7.66602 3.78271H14.3327" stroke="#242426" stroke-linecap="round" stroke-linejoin="round"/>
<path fill-rule="evenodd" clip-rule="evenodd" d="M11.6673 30.2176C11.6673 30.6016 11.3687 30.9132 11.0007 30.9132C10.6327 30.9132 10.334 30.6016 10.334 30.2176C10.334 29.8336 10.6327 29.522 11.0007 29.522C11.3687 29.522 11.6673 29.8336 11.6673 30.2176Z" stroke="#242426" stroke-linecap="round" stroke-linejoin="round"/>
</svg>
