<svg width="26" height="34" viewBox="0 0 26 34" fill="none" xmlns="http://www.w3.org/2000/svg">
<path fill-rule="evenodd" clip-rule="evenodd" d="M22.7624 31.0327C21.664 32.1137 19.4955 33 17.9412 33H3.82353C2.26918 33 1 31.7478 1 30.2174V3.78261C1 2.25217 2.26918 1 3.82353 1H22.1765C23.7308 1 25 2.25217 25 3.78261V26.0435C25 27.5739 24.1021 29.7123 23.0038 30.7934L22.7624 31.0327Z" stroke="#242426" stroke-linecap="round" stroke-linejoin="round"/>
<path fill-rule="evenodd" clip-rule="evenodd" d="M20.7638 14.913C20.7638 15.6796 20.1299 16.3043 19.352 16.3043H6.64614C5.86967 16.3043 5.23438 15.6796 5.23438 14.913V6.56513C5.23438 5.80131 5.86967 5.17383 6.64614 5.17383H19.352C20.1299 5.17383 20.7638 5.80131 20.7638 6.56513V14.913Z" stroke="#242426" stroke-linecap="round" stroke-linejoin="round"/>
<path fill-rule="evenodd" clip-rule="evenodd" d="M22.1774 21.1742C22.1774 21.5596 21.8612 21.8698 21.4715 21.8698C21.0819 21.8698 20.7656 21.5596 20.7656 21.1742C20.7656 20.7916 21.0819 20.4785 21.4715 20.4785C21.8612 20.4785 22.1774 20.7916 22.1774 21.1742Z" stroke="#242426" stroke-linecap="round" stroke-linejoin="round"/>
<path fill-rule="evenodd" clip-rule="evenodd" d="M17.9411 23.2611C17.9411 23.6465 17.6248 23.9567 17.2352 23.9567C16.8455 23.9567 16.5293 23.6465 16.5293 23.2611C16.5293 22.8785 16.8455 22.5654 17.2352 22.5654C17.6248 22.5654 17.9411 22.8785 17.9411 23.2611Z" stroke="#242426" stroke-linecap="round" stroke-linejoin="round"/>
<path d="M9.47128 23.2612H3.82422" stroke="#242426" stroke-linecap="round" stroke-linejoin="round"/>
<path d="M6.64648 20.4785V26.0437" stroke="#242426" stroke-linecap="round" stroke-linejoin="round"/>
<path d="M13.7051 29.5218L15.1168 28.8262" stroke="#242426" stroke-linecap="round" stroke-linejoin="round"/>
<path d="M9.4707 29.5218L10.8825 28.8262" stroke="#242426" stroke-linecap="round" stroke-linejoin="round"/>
</svg>
