<svg width="240" height="240" viewBox="0 0 240 240" fill="none" xmlns="http://www.w3.org/2000/svg">
<path fill-rule="evenodd" clip-rule="evenodd" d="M221.975 235.101L236.105 236.065C243.767 236.749 238.38 237.787 234.736 238.182C206.601 241.229 103.607 239.693 79.4479 238.94L63.7318 237.976C51.6728 236.766 68.9214 235.734 70.8812 235.57C82.0415 235.461 138.859 233.873 221.975 235.101Z" fill="#242426"/>
<path fill-rule="evenodd" clip-rule="evenodd" d="M46.3726 218.918C47.3157 218.918 48.0804 219.679 48.0804 220.618C48.0804 221.557 47.3157 222.318 46.3726 222.318H1.70764C0.764721 222.318 0 221.557 0 220.618C0 219.679 0.764721 218.918 1.70764 218.918H46.3726Z" fill="#242426"/>
<path fill-rule="evenodd" clip-rule="evenodd" d="M48.8858 227.219C49.8288 227.219 50.5935 227.98 50.5935 228.919C50.5935 229.858 49.8288 230.619 48.8858 230.619H32.4365C31.4935 230.619 30.7285 229.858 30.7285 228.919C30.7285 227.98 31.4935 227.219 32.4365 227.219H48.8858Z" fill="#242426"/>
<path fill-rule="evenodd" clip-rule="evenodd" d="M25.5828 209.139C26.5258 209.139 27.2905 209.9 27.2905 210.839C27.2905 211.777 26.5258 212.539 25.5828 212.539H9.13352C8.1905 212.539 7.42578 211.777 7.42578 210.839C7.42578 209.9 8.1905 209.139 9.13352 209.139H25.5828Z" fill="#242426"/>
<path fill-rule="evenodd" clip-rule="evenodd" d="M214.318 214.384C214.674 215.848 213.77 217.322 212.3 217.676C210.829 218.03 209.349 217.13 208.993 215.667L186.029 121.327C185.684 119.91 186.521 118.483 187.909 118.072L187.908 118.068L198.315 114.981C198.113 115.534 198.003 116.131 198.003 116.753C198.003 118.145 198.556 119.41 199.455 120.344L191.967 122.565L214.318 214.384Z" fill="#242426"/>
<path fill-rule="evenodd" clip-rule="evenodd" d="M194.28 218.683C194.131 219.533 193.318 220.102 192.464 219.954C191.61 219.806 191.039 218.996 191.188 218.146C192.152 212.755 195.016 208.018 199.064 204.647C203.049 201.33 208.179 199.332 213.774 199.332C216.154 199.332 218.456 199.696 220.624 200.371C222.868 201.069 224.964 202.1 226.848 203.402C227.56 203.895 227.735 204.869 227.241 205.577C226.746 206.285 225.768 206.46 225.057 205.968C223.427 204.841 221.621 203.952 219.692 203.351C217.829 202.772 215.841 202.459 213.774 202.459C208.94 202.459 204.512 204.181 201.077 207.041C197.583 209.95 195.111 214.036 194.28 218.683Z" fill="#242426"/>
<path fill-rule="evenodd" clip-rule="evenodd" d="M203.226 121.951C201.784 121.951 200.478 121.369 199.534 120.429V120.423C198.589 119.482 198.004 118.184 198.004 116.753C198.004 115.318 198.589 114.018 199.534 113.078H199.539C200.485 112.138 201.788 111.555 203.226 111.555C204.667 111.555 205.973 112.138 206.918 113.078C207.862 114.018 208.447 115.318 208.447 116.753C208.447 118.184 207.862 119.482 206.918 120.423V120.429C205.973 121.369 204.667 121.951 203.226 121.951ZM201.751 118.221C202.13 118.592 202.651 118.824 203.226 118.824C203.801 118.824 204.321 118.592 204.697 118.218C205.074 117.847 205.306 117.328 205.306 116.753C205.306 116.181 205.073 115.662 204.697 115.288C204.321 114.914 203.8 114.682 203.226 114.682C202.648 114.682 202.127 114.913 201.751 115.286C201.378 115.662 201.145 116.181 201.145 116.753C201.145 117.328 201.377 117.847 201.751 118.221Z" fill="#242426"/>
<path fill-rule="evenodd" clip-rule="evenodd" d="M201.751 118.221C202.129 118.593 202.651 118.825 203.225 118.825C203.8 118.825 204.321 118.593 204.697 118.219C205.074 117.847 205.305 117.328 205.305 116.754C205.305 116.181 205.072 115.663 204.697 115.289C204.321 114.915 203.8 114.683 203.225 114.683C202.648 114.683 202.127 114.913 201.751 115.286C201.378 115.663 201.145 116.181 201.145 116.754C201.145 117.328 201.377 117.847 201.751 118.221Z" fill="#5ED7EA"/>
<path fill-rule="evenodd" clip-rule="evenodd" d="M217.092 205.238C220.13 205.974 222.846 207.533 224.987 209.664C228.028 212.691 229.909 216.874 229.909 221.492C229.909 226.11 228.028 230.292 224.987 233.32C221.946 236.347 217.744 238.22 213.105 238.22C208.466 238.22 204.264 236.347 201.223 233.32C198.182 230.292 196.301 226.11 196.301 221.492C196.301 216.874 198.182 212.691 201.223 209.664C201.514 209.373 201.816 209.094 202.129 208.826L203.98 216.27C203.091 217.807 202.583 219.59 202.583 221.492C202.583 224.385 203.76 227.004 205.664 228.899C207.567 230.794 210.199 231.966 213.105 231.966C216.011 231.966 218.643 230.794 220.546 228.899C222.449 227.004 223.627 224.385 223.627 221.492C223.627 218.599 222.449 215.979 220.546 214.085C220.065 213.606 219.538 213.174 218.971 212.794L217.092 205.238Z" fill="#242426"/>
<path fill-rule="evenodd" clip-rule="evenodd" d="M90.3912 228.742C88.8907 231.473 86.675 233.682 84.0533 235.188C80.3291 237.329 75.7838 238.056 71.3026 236.86C66.8217 235.665 63.2501 232.773 61.0994 229.066C58.9492 225.358 58.2196 220.833 59.4201 216.372C60.621 211.911 63.5256 208.356 67.2501 206.215C70.9748 204.075 75.5202 203.348 80.0011 204.544C84.4822 205.739 88.0535 208.63 90.204 212.338C90.4101 212.694 90.603 213.056 90.7827 213.426L83.0798 213.28C81.8186 212.027 80.2199 211.077 78.3753 210.584C75.5681 209.836 72.7217 210.29 70.3903 211.63C68.0594 212.97 66.2407 215.196 65.4883 217.991C64.7363 220.786 65.1931 223.619 66.5385 225.94C67.8846 228.26 70.1216 230.071 72.9287 230.82C75.7358 231.568 78.5823 231.113 80.9133 229.774C81.5021 229.436 82.0581 229.041 82.573 228.594L90.3912 228.742Z" fill="#242426"/>
<path fill-rule="evenodd" clip-rule="evenodd" d="M197.612 184.512L195.094 174.321C194.268 170.975 197.206 170.292 200.567 169.47C203.927 168.647 206.498 168.113 207.265 171.341L219.224 219.415C220.05 222.76 217.996 226.14 214.635 226.963C211.275 227.785 207.879 225.74 207.053 222.395L201.09 198.421L172.758 225.606C171.543 226.77 169.978 227.347 168.415 227.347V227.365H75.129C71.6598 227.365 68.8472 224.565 68.8472 221.111C68.8472 217.658 71.6598 214.858 75.129 214.858H94.0085C93.3438 213.077 92.4198 211.382 91.2463 209.84C90.0675 208.291 88.6323 206.887 86.9499 205.692C83.0142 202.897 78.405 201.738 73.9399 202.08C69.3984 202.429 65.0025 204.326 61.6144 207.628C60.9977 208.234 60.0039 208.227 59.3952 207.612C58.7866 206.998 58.7938 206.009 59.4107 205.403C63.3417 201.572 68.4367 199.371 73.699 198.968C78.8774 198.571 84.2199 199.912 88.7744 203.147C90.7115 204.523 92.3727 206.149 93.744 207.953C96.5026 211.336 99.686 213.556 102.756 214.858H165.905L195.007 186.933C195.829 186.146 196.888 185.147 197.612 184.512Z" fill="#62CBF5"/>
<path fill-rule="evenodd" clip-rule="evenodd" d="M200.687 176.667L200.686 176.665C200.593 176.241 200.677 175.818 200.891 175.475C201.107 175.129 201.457 174.864 201.886 174.765L201.902 174.761C202.328 174.666 202.754 174.751 203.099 174.964C203.446 175.18 203.712 175.528 203.813 175.957L204.52 178.947C204.619 179.377 204.535 179.805 204.319 180.152C204.102 180.498 203.752 180.763 203.322 180.863H203.319C202.889 180.962 202.459 180.878 202.112 180.663C201.766 180.449 201.501 180.103 201.4 179.677C201.121 178.721 200.937 177.645 200.687 176.667Z" fill="#00869C"/>
<path fill-rule="evenodd" clip-rule="evenodd" d="M207.82 205.979C207.717 205.552 207.797 205.123 208.009 204.775C208.223 204.427 208.569 204.16 208.998 204.056C209.429 203.953 209.86 204.033 210.209 204.245C210.558 204.457 210.826 204.802 210.929 205.23L214.64 220.356C214.744 220.783 214.664 221.213 214.451 221.56C214.239 221.905 213.895 222.171 213.469 222.275L213.46 222.278C213.031 222.381 212.601 222.301 212.252 222.089C211.904 221.877 211.635 221.532 211.531 221.106L207.82 205.979Z" fill="#00869C"/>
<path fill-rule="evenodd" clip-rule="evenodd" d="M74.0563 222.637C73.615 222.64 73.2128 222.466 72.9213 222.18C72.6295 221.896 72.4469 221.498 72.4434 221.059C72.4394 220.62 72.6148 220.22 72.9014 219.929C73.1872 219.639 73.5863 219.457 74.0287 219.453L89.6679 219.279C90.1089 219.275 90.5108 219.45 90.8026 219.735C91.0942 220.02 91.277 220.417 91.281 220.857C91.2844 221.296 91.1091 221.696 90.8225 221.987C90.5361 222.277 90.1374 222.459 89.6955 222.463L74.0563 222.637Z" fill="#00869C"/>
<path fill-rule="evenodd" clip-rule="evenodd" d="M204.866 60.7341C169.771 20.4119 110.856 33.7786 93.1074 90.0086C108.489 104.446 175.384 119.422 204.866 60.7341Z" fill="white"/>
<path fill-rule="evenodd" clip-rule="evenodd" d="M204.866 60.7344C185.157 86.2693 164.555 105.831 97.5555 78.5376C95.8754 82.1363 94.3847 85.9617 93.1074 90.0088C108.489 104.447 175.384 119.422 204.866 60.7344Z" fill="#C8D5DD"/>
<path fill-rule="evenodd" clip-rule="evenodd" d="M202.827 60.9927C194.2 51.3667 184.168 45.0004 173.713 41.73C164.125 38.7309 154.172 38.3334 144.616 40.4104C135.048 42.4898 125.875 47.0502 117.86 53.9639C107.192 63.1652 99.3788 76.3319 95.0684 89.4784C96.8216 90.9532 99.1434 92.4286 101.927 93.814C109.109 97.3896 119.244 100.324 130.567 101.141C130.624 101.142 130.681 101.146 130.738 101.153C134.682 101.43 138.769 101.45 142.925 101.15C159.025 99.9877 176.118 94.0021 189.814 79.5421C194.631 74.4563 199.032 68.3256 202.827 60.9927ZM112.783 178.096C90.2259 185.618 73.4494 184.261 61.5534 177.772C53.3857 173.316 47.5495 166.456 43.7399 158.386C39.9714 150.403 38.1987 141.237 38.1234 132.066C37.9705 113.544 44.7669 94.8954 56.0285 85.8251C56.7617 85.2346 57.8372 85.3477 58.43 86.0775C58.7178 86.4319 58.8395 86.8665 58.8041 87.2873C58.8274 92.4074 59.7364 98.2719 61.4053 104.311C64.3794 115.071 69.751 126.327 76.8099 134.878C83.721 143.251 92.2271 148.993 101.603 148.98C103.658 148.978 105.766 148.698 107.915 148.109C108.227 148.025 108.542 148.032 108.832 148.115C111.395 139.675 115.975 131.473 119.861 124.514C122.086 120.531 124.075 116.97 125.263 114.106V114.099L125.393 113.79L125.442 113.684C125.577 113.367 125.76 112.93 125.974 112.398C126.102 111.915 126.223 111.46 126.336 111.038C126.636 109.913 126.871 109.036 126.973 108.507C127.066 108.024 127.355 107.629 127.743 107.387C128.032 106.419 128.301 105.401 128.52 104.374C117.447 103.348 107.545 100.397 100.406 96.8424C96.9018 95.0982 94.0386 93.1994 91.9971 91.2978C91.496 90.8697 91.2703 90.1713 91.4791 89.5039C91.923 88.0975 92.393 86.718 92.8869 85.3643L38.0791 25.9198C37.4418 25.2306 37.4866 24.157 38.1789 23.5226C38.5092 23.2201 38.9272 23.072 39.3432 23.0747C53.7861 22.4956 69.5222 24.0798 84.725 27.5056C99.7379 30.8881 114.25 36.071 126.503 42.7423C127.181 43.1089 127.498 43.1927 127.498 43.1927C129.315 42.2109 131.164 41.3236 133.04 40.5325C130.825 36.2189 127.658 31.17 123.662 24.8005C119.871 18.757 115.338 11.531 110.122 2.54638C109.651 1.73583 109.929 0.697814 110.742 0.228428C111.15 -0.00621413 111.614 -0.0542734 112.036 0.0575957C135.794 4.86292 153.693 11.9212 167.235 21.4751C176.83 28.2443 184.229 36.253 189.962 45.5865C195.713 49.2301 201.17 53.8995 206.153 59.6249C206.588 60.1278 206.703 60.8607 206.387 61.4912C202.314 69.5973 197.542 76.327 192.295 81.8663C187.032 87.423 181.296 91.7854 175.311 95.1446C175.546 96.1769 175.77 97.2004 175.984 98.2147L175.99 98.2387C177.79 105.267 179.337 110.767 181.929 114.686C183.668 117.315 185.939 119.294 189.187 120.648C195.099 119.001 199.551 118.77 201.148 122.267C201.178 122.337 201.205 122.41 201.227 122.486C202.371 126.323 200.305 130.307 196.207 134.082C192.062 137.9 185.737 141.6 178.646 144.701C176.213 162.022 169.412 174.09 160.916 181.48C157.934 184.074 154.743 186.093 151.457 187.563C151.42 187.69 151.366 187.815 151.297 187.935C149.243 191.475 147.454 196.548 146.332 201.542C145.242 206.394 144.786 211.111 145.341 214.183C145.514 215.139 145.627 216.206 144.98 217.233L144.977 217.238L144.98 217.24C144.344 218.248 143.141 218.927 140.864 218.83C137.367 218.683 134.769 216.622 132.953 213.259C132.207 211.877 131.596 210.264 131.11 208.471C130.632 211.73 130.522 214.699 130.911 216.855C131.084 217.813 131.198 218.89 130.557 219.911C129.919 220.929 128.709 221.611 126.422 221.502C125.884 221.476 125.375 221.401 124.893 221.281C120.631 220.218 118.103 215.753 116.756 210.008C115.51 204.696 115.241 198.199 115.519 192.482C115.707 188.615 116.146 185.087 116.703 182.511C115.278 181.192 113.964 179.719 112.783 178.096ZM107.894 151.611C105.764 152.121 103.664 152.365 101.603 152.367C91.0803 152.381 81.6984 146.136 74.1819 137.03C66.8131 128.103 61.2148 116.385 58.1233 105.201C56.7505 100.234 55.8693 95.3604 55.5433 90.8691C46.6528 99.9602 41.3931 116.009 41.5253 132.039C41.5975 140.747 43.2687 149.425 46.8216 156.952C50.3336 164.391 55.6994 170.708 63.1944 174.796C74.1597 180.778 89.7512 182.025 110.877 175.144C110.153 173.872 109.502 172.527 108.932 171.11L108.903 171.032C106.296 164.809 106.379 158.18 107.894 151.611ZM133.168 199.469L133.171 199.51C133.483 204.449 134.375 208.726 135.955 211.652C137.196 213.95 138.861 215.353 140.998 215.444C141.798 215.477 142.078 215.466 142.098 215.434C142.1 215.386 142.046 215.081 141.992 214.781C141.356 211.257 141.83 206.059 143.009 200.811C143.915 196.78 145.24 192.682 146.796 189.267C145.516 189.634 144.23 189.923 142.944 190.135C140.917 190.468 138.891 190.61 136.889 190.566C135.485 192.973 134.201 196.116 133.168 199.469ZM119.707 184.951C119.342 187.122 119.06 189.777 118.921 192.642C118.657 198.083 118.907 204.243 120.078 209.238C121.148 213.8 122.935 217.293 125.721 217.987C126.003 218.057 126.29 218.101 126.582 218.115C127.37 218.153 127.644 218.146 127.661 218.118C127.676 218.094 127.62 217.769 127.563 217.452C126.9 213.783 127.438 208.307 128.72 202.85C129.777 198.352 131.35 193.811 133.177 190.267C130.31 189.866 127.528 189.075 124.908 187.911C123.087 187.102 121.345 186.113 119.707 184.951ZM160.534 101.39C159.96 103.712 159.335 106.027 158.677 108.467C156.892 115.082 154.866 122.591 153.768 129.95C160.212 130.291 168.452 127.717 176.098 125.054C175.909 120.606 175.476 115.886 174.769 110.886C174.237 107.115 173.547 103.189 172.689 99.1056L172.681 99.0753C172.667 99.0195 172.656 98.9633 172.647 98.9078C172.5 98.2084 172.347 97.5043 172.19 96.7957C168.369 98.6975 164.465 100.213 160.534 101.39ZM150.401 129.447C151.533 121.853 153.579 114.271 155.382 107.591C155.872 105.774 156.345 104.021 156.762 102.416C152.213 103.53 147.652 104.213 143.165 104.537C139.356 104.812 135.601 104.826 131.95 104.626C131.265 108.032 130.058 111.342 129.227 113.422C126.71 123.035 121.935 144.412 138.144 149.033C142.06 150.149 147.887 149.906 154.405 148.712C161.603 147.394 169.571 144.924 176.745 141.834C183.732 138.825 189.939 135.245 193.898 131.598C196.978 128.762 198.62 125.98 197.997 123.581C196.527 120.884 183.287 126.119 180.631 127.059C169.303 131.07 155.859 135.829 147.14 131.889C146.804 131.738 146.505 131.521 146.244 131.251C145.58 130.561 145.166 129.465 145.095 128.25C145.033 127.182 145.225 125.963 145.739 124.835C146.08 124.087 146.563 123.372 147.208 122.756C147.886 122.107 148.964 122.128 149.616 122.802C150.268 123.477 150.247 124.55 149.57 125.2C149.258 125.498 149.019 125.853 148.848 126.229C148.569 126.841 148.465 127.496 148.498 128.064C148.519 128.428 148.576 128.706 148.658 128.845C149.212 129.087 149.794 129.286 150.401 129.447ZM154.828 152.081C154.871 152.197 154.915 152.313 154.959 152.43C155.188 153.024 155.432 153.593 155.69 154.135L155.693 154.134C156.965 156.794 158.419 159.674 160.551 161.864C162.502 163.867 165.097 165.369 168.8 165.713C171.571 160.313 173.717 153.841 174.97 146.23C168.417 148.817 161.423 150.873 155.019 152.046L154.828 152.081ZM167.019 168.899C163.145 168.241 160.309 166.487 158.11 164.228C155.595 161.646 153.997 158.494 152.611 155.595L152.614 155.594L152.611 155.589C152.3 154.936 152.02 154.286 151.771 153.638C151.642 153.304 151.52 152.965 151.402 152.621C145.838 153.365 140.866 153.342 137.21 152.3C123.796 148.476 122.238 135.896 123.461 125.042L122.837 126.161C115.744 138.86 106.227 155.901 112.057 169.763L112.094 169.848C114.965 176.989 120.122 182.074 126.295 184.816C131.218 187.004 136.799 187.709 142.397 186.788C148.02 185.862 153.661 183.292 158.674 178.93C161.738 176.265 164.567 172.933 167.019 168.899ZM184.594 122.082C182.342 120.623 180.566 118.781 179.088 116.545C179.009 116.426 178.931 116.305 178.854 116.184C179.129 118.82 179.326 121.383 179.451 123.875L179.497 123.858C181.251 123.237 182.957 122.633 184.594 122.082ZM101.101 68.4551L81.8672 44.8747C81.2744 44.1487 81.3848 43.0812 82.1142 42.4907C82.4548 42.2148 82.8706 42.092 83.2774 42.1135C88.7817 42.2271 94.6993 43.1698 100.375 44.7831C105.902 46.355 111.233 48.5707 115.765 51.2859C118.395 49.0295 121.143 47.0118 123.984 45.2374C112.201 38.9501 98.3329 34.0475 83.978 30.8129C70.3246 27.7362 56.2459 26.1725 43.114 26.3631L94.2548 81.83C96.2328 77.0084 98.5316 72.5474 101.101 68.4551ZM113.122 53.6742C109.054 51.3554 104.34 49.4434 99.441 48.0505C95.2909 46.8704 91.0274 46.0665 86.9306 45.7056L103.06 65.4802C106.108 61.068 109.485 57.1289 113.122 53.6742ZM145.113 36.8385C144.761 35.8821 144.346 34.7948 143.848 33.5421C142.742 30.7591 141.278 27.2981 139.275 22.9215C138.885 22.0707 139.261 21.0655 140.116 20.6769C140.523 20.492 140.965 20.48 141.359 20.6102C147.354 22.4342 153.288 25.4593 158.396 29.5553C160.897 31.5605 163.204 33.8237 165.228 36.33C168.415 36.7896 171.59 37.5077 174.727 38.4891C177.661 39.4084 180.562 40.5554 183.411 41.9355C178.51 35.2625 172.545 29.3765 165.261 24.2378C152.799 15.4466 136.462 8.81469 114.999 4.14052C119.361 11.5356 123.243 17.7227 126.558 23.0071C130.693 29.6 133.953 34.7965 136.233 39.2878C138.751 38.3855 141.309 37.6522 143.895 37.0898C144.301 37.0023 144.707 36.9184 145.113 36.8385ZM161.238 35.8895C161.088 35.878 160.938 35.8669 160.789 35.8569L161.238 35.8895ZM160.244 35.8217C158.995 34.53 157.662 33.3212 156.262 32.1987C152.526 29.203 148.322 26.8227 143.992 25.1147C145.264 27.9884 146.247 30.3398 147.023 32.2934C147.623 33.8017 148.116 35.1156 148.532 36.2699C152.408 35.7393 156.326 35.5873 160.244 35.8217Z" fill="#242426"/>
<path fill-rule="evenodd" clip-rule="evenodd" d="M160.533 101.39C159.959 103.712 159.334 106.027 158.676 108.467C156.891 115.082 154.865 122.591 153.767 129.95C160.211 130.291 168.451 127.717 176.097 125.055C175.909 120.606 175.475 115.886 174.768 110.887C174.236 107.115 173.546 103.189 172.688 99.1057L172.68 99.0754C172.666 99.0196 172.655 98.9634 172.646 98.9079C172.499 98.2085 172.346 97.5044 172.189 96.7958C168.368 98.6976 164.464 100.213 160.533 101.39ZM154.827 152.081C154.87 152.197 154.914 152.313 154.959 152.43C155.187 153.024 155.431 153.594 155.69 154.135L155.692 154.134C156.964 156.794 158.418 159.674 160.55 161.864C162.501 163.867 165.096 165.369 168.799 165.713C171.57 160.313 173.716 153.841 174.969 146.23C168.416 148.817 161.423 150.874 155.018 152.046L154.827 152.081ZM113.121 53.6743C109.054 51.3555 104.339 49.4435 99.4401 48.0505C95.29 46.8705 91.0265 46.0666 86.9297 45.7056L103.059 65.4803C106.107 61.0681 109.485 57.129 113.121 53.6743ZM161.237 35.8896C161.087 35.8781 160.938 35.867 160.788 35.857L161.237 35.8896ZM160.243 35.8218C158.994 34.5301 157.661 33.3213 156.261 32.1987C152.525 29.2031 148.321 26.8228 143.991 25.1147C145.263 27.9885 146.246 30.3399 147.022 32.2935C147.622 33.8018 148.115 35.1157 148.531 36.27C152.407 35.7394 156.325 35.5873 160.243 35.8218Z" fill="white"/>
<path fill-rule="evenodd" clip-rule="evenodd" d="M160.534 101.391C159.96 103.712 159.335 106.027 158.677 108.467C156.892 115.083 154.866 122.591 153.768 129.95C156.349 130.087 159.22 129.755 162.224 129.138C162.841 125.582 164.556 109.264 166.457 99.3438C164.494 100.116 162.518 100.796 160.534 101.391ZM154.828 152.081C154.871 152.197 154.915 152.314 154.959 152.43C155.188 153.024 155.432 153.594 155.69 154.135L155.693 154.134C156.965 156.794 158.419 159.674 160.551 161.864C162.501 163.867 165.097 165.369 168.8 165.713C169.685 163.989 170.506 162.155 171.255 160.209C167.645 158.523 164.438 154.782 163.312 150.131C160.495 150.907 157.705 151.555 155.019 152.046L154.828 152.081Z" fill="#C8D5DD"/>
<path fill-rule="evenodd" clip-rule="evenodd" d="M202.827 60.9928C199.043 56.7705 194.989 53.1756 190.747 50.1937C185.318 46.3777 179.583 43.5661 173.714 41.7301C164.126 38.731 154.172 38.3335 144.616 40.4105C135.049 42.4899 125.876 47.0503 117.861 53.964C107.193 63.1653 99.3794 76.332 95.0689 89.4785C145.281 64.3717 174.264 53.3767 202.827 60.9928ZM107.895 151.611C105.764 152.121 103.665 152.365 101.603 152.367C91.0808 152.381 81.699 146.136 74.1824 137.03C66.8137 128.103 61.2153 116.385 58.1239 105.201C56.751 100.234 55.8699 95.3605 55.5439 90.8692C46.6534 99.9603 41.3936 116.009 41.5259 132.039C41.5981 140.747 43.2692 149.425 46.8221 156.952C50.3342 164.391 55.7 170.708 63.195 174.796C74.1603 180.778 89.7518 182.025 110.878 175.144C110.154 173.873 109.503 172.527 108.933 171.11L108.903 171.032C106.297 164.809 106.38 158.18 107.895 151.611ZM133.168 199.469L133.172 199.51C133.483 204.449 134.376 208.726 135.956 211.652C137.197 213.95 138.862 215.353 140.999 215.444C141.799 215.477 142.079 215.466 142.099 215.434C142.101 215.386 142.047 215.081 141.993 214.781C141.356 211.257 141.831 206.059 143.01 200.811C143.916 196.78 145.241 192.682 146.797 189.267C145.517 189.634 144.23 189.923 142.944 190.135C140.918 190.468 138.891 190.61 136.889 190.566C135.486 192.973 134.202 196.116 133.168 199.469ZM119.708 184.951C119.343 187.122 119.061 189.777 118.922 192.642C118.657 198.083 118.907 204.244 120.078 209.238C121.148 213.801 122.936 217.293 125.721 217.987C126.003 218.058 126.291 218.101 126.582 218.115C127.371 218.153 127.644 218.146 127.662 218.118C127.677 218.094 127.62 217.769 127.563 217.452C126.9 213.783 127.438 208.307 128.721 202.85C129.778 198.352 131.35 193.811 133.177 190.267C130.31 189.866 127.528 189.075 124.908 187.912C123.087 187.102 121.345 186.113 119.708 184.951ZM150.402 129.447C151.533 121.853 153.579 114.271 155.382 107.591C155.872 105.774 156.345 104.021 156.763 102.416C152.213 103.53 147.652 104.213 143.165 104.537C139.357 104.812 135.601 104.826 131.95 104.626C131.265 108.032 130.059 111.342 129.228 113.423C126.71 123.035 121.935 144.412 138.144 149.033C142.06 150.149 147.888 149.906 154.406 148.712C161.604 147.394 169.572 144.924 176.746 141.834C183.733 138.825 189.94 135.246 193.899 131.599C196.979 128.762 198.62 125.98 197.997 123.581C196.527 120.884 183.288 126.119 180.632 127.059C169.303 131.07 155.86 135.829 147.14 131.889C146.805 131.738 146.505 131.522 146.245 131.251C145.58 130.561 145.167 129.466 145.096 128.25C145.034 127.183 145.225 125.963 145.739 124.835C146.08 124.087 146.564 123.372 147.209 122.756C147.886 122.107 148.965 122.128 149.617 122.802C150.269 123.477 150.248 124.551 149.57 125.2C149.258 125.498 149.02 125.853 148.848 126.229C148.569 126.841 148.465 127.496 148.498 128.064C148.519 128.428 148.577 128.707 148.659 128.845C149.212 129.087 149.794 129.286 150.402 129.447ZM167.02 168.9C163.146 168.241 160.31 166.487 158.11 164.228C155.596 161.646 153.998 158.494 152.612 155.596L152.615 155.594L152.612 155.589C152.3 154.936 152.02 154.286 151.771 153.638C151.643 153.304 151.52 152.965 151.403 152.621C145.838 153.365 140.866 153.342 137.21 152.3C123.796 148.476 122.238 135.896 123.462 125.042L122.837 126.161C115.745 138.86 106.228 155.901 112.057 169.763L112.095 169.849C114.966 176.989 120.122 182.074 126.296 184.817C131.219 187.004 136.8 187.709 142.397 186.788C148.02 185.862 153.661 183.292 158.675 178.93C161.738 176.265 164.568 172.933 167.02 168.9ZM184.595 122.082C182.342 120.623 180.566 118.781 179.088 116.545C179.009 116.426 178.931 116.305 178.854 116.184C179.129 118.82 179.327 121.383 179.451 123.875L179.497 123.858C181.252 123.237 182.958 122.633 184.595 122.082ZM101.101 68.4552L81.8678 44.8748C81.275 44.1488 81.3854 43.0813 82.1147 42.4908C82.4554 42.2149 82.8711 42.0921 83.2779 42.1136C88.7823 42.2272 94.6999 43.1699 100.375 44.7832C105.903 46.3551 111.233 48.5709 115.766 51.286C118.395 49.0296 121.143 47.012 123.985 45.2375C112.202 38.9502 98.3335 34.0476 83.9786 30.813C70.3251 27.7363 56.2465 26.1726 43.1145 26.3632L94.2553 81.8301C96.2334 77.0085 98.5322 72.5475 101.101 68.4552ZM145.114 36.8386C144.761 35.8822 144.347 34.7949 143.849 33.5422C142.743 30.7592 141.279 27.2982 139.276 22.9216C138.885 22.0708 139.262 21.0656 140.116 20.677C140.523 20.4921 140.966 20.4801 141.36 20.6103C147.354 22.4343 153.288 25.4594 158.397 29.5554C160.898 31.5606 163.204 33.8238 165.228 36.3301C168.416 36.7898 171.59 37.5078 174.728 38.4892C177.661 39.4085 180.562 40.5555 183.411 41.9356C178.511 35.2626 172.545 29.3766 165.261 24.2379C152.8 15.4467 136.463 8.8148 114.999 4.14062C119.362 11.5357 123.243 17.7228 126.558 23.0072C130.694 29.6001 133.954 34.7966 136.233 39.2879C138.751 38.3856 141.31 37.6523 143.896 37.0899C144.302 37.0024 144.708 36.9185 145.114 36.8386Z" fill="#FFC830"/>
<path fill-rule="evenodd" clip-rule="evenodd" d="M162.694 39.4344C156.636 38.7853 150.549 39.1207 144.615 40.4106C135.048 42.4901 125.874 47.0504 117.859 53.9641C124.401 54.0752 153.221 46.5358 162.694 39.4344Z" fill="#FFE08A"/>
<path fill-rule="evenodd" clip-rule="evenodd" d="M174.727 38.4892C177.66 39.4085 180.561 40.5555 183.41 41.9356C178.51 35.2626 172.544 29.3766 165.26 24.2379C152.799 15.4467 136.462 8.8148 114.998 4.14062C140.805 15.5698 156.189 19.4784 174.727 38.4892Z" fill="#FFE08A"/>
<path fill-rule="evenodd" clip-rule="evenodd" d="M184.594 122.082C182.341 120.623 180.566 118.781 179.087 116.545C179.008 116.426 178.931 116.305 178.854 116.184C179.128 118.819 179.326 121.383 179.451 123.874L179.497 123.858C181.251 123.237 182.957 122.633 184.594 122.082Z" fill="#BF9026"/>
<path fill-rule="evenodd" clip-rule="evenodd" d="M129.221 147.946C123.19 142.285 122.544 133.179 123.461 125.042L122.837 126.161C115.744 138.86 106.227 155.901 112.057 169.763L112.094 169.849C114.336 158.13 125.366 150.71 129.221 147.946Z" fill="#BF9026"/>
<path fill-rule="evenodd" clip-rule="evenodd" d="M107.895 151.611C105.764 152.121 103.665 152.365 101.603 152.367C91.0807 152.381 81.6988 146.136 74.1823 137.03C66.8136 128.103 61.2152 116.385 58.1237 105.201C56.7509 100.234 55.8697 95.3605 55.5437 90.8691C46.9053 139.434 87.9251 167.993 107.895 151.611Z" fill="#FFE08A"/>
<path fill-rule="evenodd" clip-rule="evenodd" d="M119.152 48.5594C120.728 47.3717 122.34 46.2638 123.984 45.2375C112.2 38.9502 98.3322 34.0476 83.9773 30.813C70.3239 27.7363 56.2452 26.1726 43.1133 26.3632L46.27 29.7867C59.0713 28.2924 107.839 40.9262 119.152 48.5594ZM120.626 5.52354C118.603 4.98096 116.714 4.5144 114.998 4.14062C119.36 11.5357 123.242 17.7228 126.557 23.0072C130.693 29.6001 133.953 34.7966 136.232 39.2879C137.935 38.6781 139.656 38.1449 141.392 37.6899C136.91 27.5157 124.825 9.82515 120.626 5.52354Z" fill="#BF9026"/>
<path fill-rule="evenodd" clip-rule="evenodd" d="M133.167 199.469L133.17 199.51C133.482 204.449 134.374 208.726 135.954 211.652C137.195 213.95 138.86 215.353 140.997 215.444C141.797 215.477 142.077 215.466 142.097 215.434C142.099 215.386 142.045 215.081 141.991 214.781C136.788 209.999 136.398 203.991 134.744 195.016C134.174 196.421 133.644 197.923 133.167 199.469ZM119.706 184.951C119.341 187.122 119.059 189.777 118.92 192.642C118.656 198.083 118.906 204.243 120.077 209.238C121.147 213.801 122.934 217.293 125.72 217.987C126.002 218.057 126.289 218.101 126.581 218.115C127.369 218.153 127.643 218.146 127.661 218.118C127.676 218.094 127.619 217.769 127.562 217.452C122.091 211.159 122.717 196.245 124.907 187.911C123.086 187.102 121.344 186.113 119.706 184.951Z" fill="#BF9026"/>
<path fill-rule="evenodd" clip-rule="evenodd" d="M140.352 104.694C136.544 104.968 135.6 104.826 131.949 104.626C131.264 108.031 130.058 111.341 129.227 113.422C126.709 123.035 121.934 144.411 138.143 149.032C142.059 150.149 147.887 149.906 154.405 148.712C161.603 147.394 169.571 144.923 176.745 141.834C183.732 138.825 189.938 135.245 193.898 131.598C196.978 128.762 198.619 125.98 197.996 123.58C194.29 129.14 147.472 154.708 135.052 139.385C130.597 133.889 137.183 112.707 140.352 104.694Z" fill="#BF9026"/>
<path fill-rule="evenodd" clip-rule="evenodd" d="M55.5439 90.8691C46.6534 99.9602 41.3936 116.009 41.5259 132.039C41.5981 140.747 43.2692 149.425 46.8221 156.952C50.3342 164.391 55.7 170.708 63.195 174.796C74.1603 180.778 89.7518 182.025 110.878 175.144C110.154 173.872 109.503 172.527 108.933 171.11L108.903 171.032C86.8901 179.773 27.1776 176.641 55.5439 90.8691Z" fill="#BF9026"/>
<path fill-rule="evenodd" clip-rule="evenodd" d="M143.895 79.2229C147.09 74.3497 147.683 67.6576 143.246 60.0469C144.525 59.3045 151.575 56.5344 159.015 53.8094C160.884 61.7553 166.1 66.0213 172.007 67.3264C175.476 68.0928 179.181 67.8275 182.577 66.6793C185.972 65.531 189.066 63.4959 191.316 60.7223C195.388 55.7018 196.693 48.3047 192.02 39.4316C191.843 39.0416 191.388 38.8544 190.983 39.0129L110.28 70.527C109.913 70.6707 109.696 71.0639 109.786 71.4586C111.993 81.1117 118.089 85.9266 124.694 87.1139C128.353 87.7716 132.165 87.306 135.552 85.9266C138.943 84.5451 141.917 82.2405 143.895 79.2229Z" fill="#242426"/>
<path fill-rule="evenodd" clip-rule="evenodd" d="M147.297 64.8255L159.668 59.8882C161.25 69.1299 151.943 71.1421 147.297 64.8255Z" fill="#242426"/>
<path fill-rule="evenodd" clip-rule="evenodd" d="M147.297 64.8255L159.668 59.8882C161.25 69.1299 151.943 71.1421 147.297 64.8255Z" stroke="#242426" stroke-width="2.0001" stroke-linecap="round" stroke-linejoin="round"/>
<path fill-rule="evenodd" clip-rule="evenodd" d="M147.182 76.9329C146.305 76.5921 145.873 75.6079 146.215 74.7349C146.558 73.8624 147.546 73.4314 148.423 73.7722C149.872 74.3391 151.015 74.5085 151.904 74.4009C152.777 74.2951 153.403 73.8875 153.837 73.338C154.339 72.7024 154.628 71.8709 154.762 71.047C154.938 69.9626 154.861 68.97 154.649 68.4432C154.299 67.574 154.723 66.5865 155.596 66.2382C156.419 65.9103 157.347 66.266 157.744 67.0353C157.851 67.2408 158.149 67.5926 158.602 68.0081C159.318 68.6652 160.321 69.3564 161.432 69.7176C162.418 70.0378 163.499 70.0879 164.517 69.5648C164.966 69.3338 165.42 68.9878 165.87 68.5018C166.507 67.8124 167.585 67.7677 168.278 68.4022C168.97 69.0368 169.015 70.1102 168.378 70.7994C168.038 71.166 167.69 71.4875 167.335 71.7673C168.028 74.0704 168.582 76.1802 169.009 78.0995C169.044 78.2068 169.069 78.3179 169.082 78.4309C170.223 83.6779 170.395 87.466 169.822 89.842C169.345 91.8214 168.357 93.048 166.948 93.5385C165.605 94.0065 164.048 93.714 162.354 92.6822C160.608 91.6185 158.566 89.6493 156.356 86.8163C156.268 86.7253 156.19 86.6248 156.123 86.5155C154.319 84.1649 152.406 81.2448 150.456 77.7773C149.474 77.6731 148.386 77.4037 147.182 76.9329ZM163.954 81.0397C164.132 81.9226 164.555 82.9843 164.943 83.9581H164.949L165.12 84.3899C165.466 85.2625 165.037 86.25 164.16 86.5944C163.283 86.939 162.291 86.5113 161.945 85.6386L161.774 85.2067L161.78 85.2045C161.43 84.3264 161.057 83.389 160.797 82.4549L160.765 82.4597C160.458 82.5115 160.193 82.6753 159.979 82.902C159.707 83.1893 159.504 83.5723 159.378 83.9846L159.358 84.0436C159.266 84.3659 159.223 84.6941 159.23 85.0003C161.066 87.3295 162.729 88.9336 164.129 89.7871C164.917 90.2667 165.493 90.4541 165.827 90.3377C166.096 90.2444 166.33 89.8223 166.513 89.0584C166.955 87.2281 166.823 84.2456 165.962 80.0494C165.623 80.0692 165.254 80.1644 164.906 80.3184C164.483 80.5051 164.128 80.7595 163.954 81.0397Z" fill="#242426"/>
<path fill-rule="evenodd" clip-rule="evenodd" d="M163.953 81.0401C164.131 81.923 164.554 82.9848 164.942 83.9585H164.948L165.12 84.3903C165.466 85.2629 165.036 86.2504 164.16 86.5949C163.283 86.9394 162.291 86.5117 161.945 85.639L161.773 85.2071L161.779 85.2049C161.429 84.3268 161.056 83.3894 160.796 82.4553L160.765 82.4601C160.458 82.5119 160.193 82.6757 159.978 82.9024C159.706 83.1897 159.504 83.5727 159.377 83.985L159.358 84.044C159.266 84.3663 159.222 84.6945 159.229 85.0007C161.065 87.3299 162.728 88.934 164.128 89.7875C164.916 90.2671 165.492 90.4545 165.827 90.3381C166.095 90.2448 166.329 89.8227 166.513 89.0588C166.954 87.2285 166.822 84.246 165.962 80.0498C165.622 80.0696 165.254 80.1648 164.905 80.3188C164.482 80.5055 164.128 80.7599 163.953 81.0401Z" fill="#FB5897"/>
<path d="M113.524 72.2524L93.1074 90.0088" stroke="#242426" stroke-width="4" stroke-linecap="round" stroke-linejoin="round"/>
<path fill-rule="evenodd" clip-rule="evenodd" d="M83.0675 99.128L114.03 107.276C118.74 108.515 121.575 113.365 120.33 118.055L110.128 156.477C108.883 161.166 104.011 163.988 99.3 162.748L68.3376 154.6C63.6274 153.361 60.7923 148.511 62.0375 143.822L72.2398 105.4C73.485 100.711 78.3572 97.8884 83.0675 99.128Z" fill="#62CBF5"/>
<path fill-rule="evenodd" clip-rule="evenodd" d="M63.3104 150.885C62.2283 148.464 61.546 145.67 62.0371 143.821L72.2394 105.399C72.7929 103.315 75.2395 100.918 77.6774 99.3105C76.8166 101.379 69.4608 131.306 67.0559 142.993C66.6365 145.031 65.4678 147.693 67.986 152.704C67.346 153.883 63.8724 150.238 63.3104 150.885Z" fill="#ECE8CB"/>
<path fill-rule="evenodd" clip-rule="evenodd" d="M117.08 108.75C118.424 110.672 120.297 116.171 119.696 118.611L110.649 155.348C109.489 160.059 104.964 163.261 100.104 162.921L91.1309 162.291C97.2272 161.822 101.51 160.916 103.798 156.993C107.399 150.818 116.294 115.494 117.08 108.75Z" fill="#00869C"/>
<path fill-rule="evenodd" clip-rule="evenodd" d="M103.485 138.957L100.608 149.792C100.171 151.44 98.4569 152.434 96.8021 151.997L75.2805 146.304C73.6257 145.867 72.6283 144.164 73.0659 142.516L75.9432 131.68C76.3807 130.032 78.0936 129.038 79.749 129.476L101.271 135.168C102.926 135.605 103.922 137.309 103.485 138.957Z" fill="#00869C"/>
<path fill-rule="evenodd" clip-rule="evenodd" d="M103.485 138.957C96.0723 142.655 79.3381 137.097 75.9434 131.68C76.3809 130.032 78.0938 129.038 79.7492 129.476L101.271 135.168C102.926 135.605 103.923 137.309 103.485 138.957Z" fill="#ECE8CB"/>
<path d="M108.92 159.677C118.181 158.579 129.095 155.524 138.629 151.076" stroke="#242426" stroke-width="4" stroke-linecap="round" stroke-linejoin="round"/>
<path d="M118.627 109.666C131.811 104.407 152.959 116.044 149.597 130.987" stroke="#242426" stroke-width="4" stroke-linecap="round" stroke-linejoin="round"/>
<path fill-rule="evenodd" clip-rule="evenodd" d="M120.622 116.042L117.479 108.218L80.3995 98.8457L73.7773 102.291C73.894 115.417 109.874 127.396 120.622 116.042Z" fill="#00869C"/>
<path fill-rule="evenodd" clip-rule="evenodd" d="M82.503 109.821C82.6959 109.108 83.4342 108.684 84.151 108.876C84.8679 109.068 85.2935 109.803 85.1003 110.517L83.1341 117.856C82.9412 118.57 82.2028 118.994 81.4861 118.801C80.7691 118.609 80.3437 117.874 80.5368 117.161L82.503 109.821Z" fill="#242426"/>
<path fill-rule="evenodd" clip-rule="evenodd" d="M82.503 109.821C82.6959 109.108 83.4342 108.684 84.151 108.876C84.8679 109.068 85.2935 109.803 85.1003 110.517L83.1341 117.856C82.9412 118.57 82.2028 118.994 81.4861 118.801C80.7691 118.609 80.3437 117.874 80.5368 117.161L82.503 109.821Z" stroke="#242426" stroke-width="1.0001"/>
<path fill-rule="evenodd" clip-rule="evenodd" d="M106.497 116.182C106.69 115.469 107.428 115.045 108.145 115.237C108.862 115.43 109.288 116.164 109.095 116.878L107.128 124.217C106.935 124.931 106.197 125.355 105.48 125.163C104.763 124.97 104.338 124.236 104.531 123.522L106.497 116.182Z" fill="#242426"/>
<path fill-rule="evenodd" clip-rule="evenodd" d="M106.497 116.182C106.69 115.469 107.428 115.045 108.145 115.237C108.862 115.43 109.288 116.164 109.095 116.878L107.128 124.217C106.935 124.931 106.197 125.355 105.48 125.163C104.763 124.97 104.338 124.236 104.531 123.522L106.497 116.182Z" stroke="#242426" stroke-width="1.0001"/>
<path fill-rule="evenodd" clip-rule="evenodd" d="M83.5026 97.4876L114.465 105.635C117.276 106.375 119.527 108.191 120.889 110.521C122.249 112.847 122.722 115.69 121.979 118.486L111.771 156.928C111.025 159.717 109.203 161.951 106.869 163.303C104.532 164.656 101.677 165.127 98.8683 164.388L67.9054 156.24C65.0943 155.501 62.8429 153.684 61.4813 151.354C60.1215 149.028 59.6488 146.186 60.3911 143.39L70.5935 104.968C71.3366 102.17 73.1611 99.9284 75.5016 98.5729C77.8383 97.2195 80.6935 96.7487 83.5026 97.4876ZM113.598 108.916L82.6355 100.768C80.7339 100.268 78.7974 100.589 77.2093 101.508C75.6255 102.425 74.3904 103.941 73.8887 105.831L63.6863 144.253C63.1838 146.146 63.5058 148.074 64.4299 149.654C65.3516 151.231 66.8738 152.461 68.7724 152.96L99.7348 161.108C101.636 161.608 103.573 161.288 105.161 160.368C106.745 159.45 107.98 157.935 108.481 156.045L118.684 117.623C119.186 115.73 118.864 113.802 117.94 112.221C117.019 110.644 115.497 109.415 113.598 108.916Z" fill="#242426"/>
<path fill-rule="evenodd" clip-rule="evenodd" d="M88.6612 136.369C89.899 136.369 90.9026 137.368 90.9026 138.6C90.9026 139.832 89.899 140.831 88.6612 140.831C87.4233 140.831 86.4199 139.832 86.4199 138.6C86.4199 137.368 87.4233 136.369 88.6612 136.369Z" fill="#242426"/>
<path fill-rule="evenodd" clip-rule="evenodd" d="M188.126 58.9186L172.624 50.1562L168.135 52.1047C173.612 55.309 179.09 58.5136 184.567 61.7178C185.953 61.2606 187.216 60.1736 188.126 58.9186Z" fill="white"/>
<path fill-rule="evenodd" clip-rule="evenodd" d="M139.712 77.7892L124.21 69.0269L119.721 70.9751C125.198 74.1796 130.676 77.3839 136.153 80.5886C137.539 80.1312 138.802 79.0442 139.712 77.7892Z" fill="white"/>
<path fill-rule="evenodd" clip-rule="evenodd" d="M191.044 54.0135L179.5 47.3428L176.016 48.855C180.567 51.523 185.05 54.2559 189.601 56.9241C190.357 56.2864 190.997 55.0398 191.044 54.0135Z" fill="white"/>
<path fill-rule="evenodd" clip-rule="evenodd" d="M143.524 72.3742L131.981 65.7031L128.496 67.2154C133.047 69.8836 137.53 72.6165 142.081 75.2848C142.838 74.6468 143.478 73.4002 143.524 72.3742Z" fill="white"/>
<path fill-rule="evenodd" clip-rule="evenodd" d="M133.657 48.5512C135.33 47.7004 137.379 48.3603 138.234 50.0252C139.088 51.6904 138.425 53.73 136.753 54.5809L118.772 63.7259C117.099 64.5767 115.05 63.9168 114.196 62.2519C113.341 60.5869 114.004 58.5471 115.676 57.6963L133.657 48.5512Z" fill="#242426"/>
<path fill-rule="evenodd" clip-rule="evenodd" d="M155.614 47.3081C153.779 47.7408 151.94 46.6112 151.505 44.7847C151.07 42.9582 152.205 41.1268 154.04 40.6941L173.68 36.0279C175.514 35.5951 177.354 36.725 177.789 38.5516C178.223 40.3778 177.089 42.2094 175.254 42.6422L155.614 47.3081Z" fill="#242426"/>
</svg>
