<svg width="76" height="32" viewBox="0 0 76 32" fill="none" xmlns="http://www.w3.org/2000/svg">
<path fill-rule="evenodd" clip-rule="evenodd" d="M6.13192 4.94374C9.0156 4.42384 12.2208 4.32674 15.3449 4.12365C32.6631 2.9978 52.2553 2.27779 69.6014 1.56545C73.1982 1.52097 76.2381 1.51786 75.3477 8.54072L73.3346 24.4167C72.506 29.711 71.4855 28.5555 67.5171 28.7601C63.8506 28.9493 59.3136 28.788 57.2305 28.7611C44.5238 28.8388 29.4581 28.643 16.7516 28.7203C15.1503 28.73 11.1014 28.7022 7.89562 28.7734C1.94905 28.9054 2.25608 26.9829 1.42666 21.2509L0.226408 12.9569C-0.584644 7.35197 0.648532 5.93242 6.13192 4.94374Z" fill="white"/>
<path fill-rule="evenodd" clip-rule="evenodd" d="M13.2527 10.091V11.8498H15.8628V13.3583H13.2527V16.6595C13.2527 17.318 13.4847 17.5335 14.1389 17.5335C14.2422 17.5335 14.337 17.5284 14.4231 17.5185C14.51 17.5085 14.5935 17.4933 14.6732 17.4734C14.8418 17.4313 14.9882 17.3777 15.1122 17.3128L16.0092 16.8429V18.4972L15.6902 18.6726C15.5841 18.7309 15.4658 18.7839 15.3355 18.8314C15.2134 18.8759 15.0835 18.9141 14.9465 18.946C14.8097 18.9777 14.6677 19.0016 14.5207 19.0175C14.3694 19.0338 14.2216 19.0421 14.078 19.0421C13.7361 19.0421 13.424 18.993 13.1416 18.8948C12.8413 18.7904 12.5834 18.6319 12.3679 18.4194C12.15 18.2043 11.9875 17.9445 11.8808 17.6401C11.7816 17.3572 11.732 17.0424 11.732 16.6961V13.3583H10.6343V11.8498H11.732V9.74881L13.2527 9.24219V10.091Z" fill="black"/>
<path fill-rule="evenodd" clip-rule="evenodd" d="M16.9714 15.3878C16.9714 15.1089 16.9963 14.8401 17.046 14.5819C17.0966 14.3189 17.1728 14.0719 17.2743 13.8418C17.3738 13.6158 17.4902 13.407 17.623 13.2157L17.6242 13.2165C17.7604 13.0205 17.9127 12.8432 18.0805 12.6853C18.2489 12.5268 18.4321 12.3867 18.6295 12.2655C18.8255 12.1452 19.0335 12.0446 19.2526 11.9642C19.4711 11.8842 19.6925 11.8242 19.9162 11.7845C20.1413 11.7446 20.3688 11.7246 20.5981 11.7246C20.8313 11.7246 21.0613 11.7447 21.2876 11.7845C21.513 11.8243 21.7338 11.8843 21.9496 11.9642H21.9519C22.1639 12.0428 22.3703 12.1442 22.5707 12.2679C22.7677 12.3897 22.9496 12.529 23.1156 12.6853C23.2834 12.8432 23.4357 13.0205 23.572 13.2165L23.5731 13.2157C23.7059 13.407 23.8222 13.6158 23.9219 13.8418C24.0233 14.0719 24.0996 14.3189 24.1501 14.582C24.1998 14.8401 24.2247 15.1089 24.2247 15.3878C24.2247 15.9605 24.1237 16.4759 23.9219 16.9337C23.8222 17.1598 23.7059 17.3686 23.5731 17.5599L23.572 17.5591C23.4357 17.7552 23.2834 17.9324 23.1156 18.0903C22.9495 18.2468 22.7676 18.3859 22.5705 18.5077C22.3733 18.6296 22.1668 18.7307 21.9517 18.8106L21.9519 18.8114C21.7375 18.8909 21.5159 18.9508 21.2875 18.9911C21.0613 19.031 20.8312 19.051 20.5981 19.051C20.3687 19.051 20.1414 19.0311 19.9163 18.9911C19.6925 18.9514 19.4711 18.8915 19.2526 18.8114C19.0335 18.7311 18.8257 18.6305 18.6295 18.5101C18.4321 18.3889 18.249 18.2489 18.0805 18.0903C17.9126 17.9324 17.7604 17.7552 17.6242 17.5591L17.623 17.5599C17.4902 17.3686 17.3739 17.1598 17.2743 16.9337C17.1728 16.7037 17.0966 16.4567 17.046 16.1937C16.9963 15.9355 16.9714 15.6668 16.9714 15.3878ZM22.7039 15.3878C22.7039 15.0277 22.6475 14.7144 22.5348 14.4483C22.4793 14.3173 22.4121 14.194 22.3333 14.0789C22.2563 13.9667 22.1729 13.8686 22.0835 13.7848C21.9889 13.6964 21.8855 13.6173 21.7738 13.5481C21.6631 13.4795 21.5455 13.4218 21.4213 13.3753C21.1687 13.2806 20.8942 13.2331 20.5981 13.2331C20.302 13.2331 20.0275 13.2805 19.7748 13.3753C19.6507 13.4218 19.533 13.4795 19.4222 13.5481C19.3107 13.6173 19.2073 13.6963 19.1127 13.7848C19.0232 13.8685 18.9399 13.9667 18.8629 14.0789C18.7841 14.194 18.7168 14.3173 18.6613 14.4483C18.6056 14.5797 18.5635 14.722 18.535 14.8746C18.5065 15.0277 18.4922 15.1988 18.4922 15.3878C18.4922 15.7479 18.5485 16.0611 18.6613 16.3273C18.7167 16.4583 18.7841 16.5816 18.8629 16.6967C18.9399 16.8089 19.0232 16.9071 19.1127 16.9908C19.2073 17.0793 19.3106 17.1583 19.4222 17.2274C19.533 17.2961 19.6507 17.3538 19.7748 17.4003C20.0275 17.4951 20.302 17.5425 20.5981 17.5425C20.8942 17.5425 21.1687 17.495 21.4213 17.4003C21.5455 17.3538 21.6631 17.2961 21.7738 17.2274C21.8855 17.1583 21.9889 17.0792 22.0835 16.9908C22.1729 16.9071 22.2563 16.8089 22.3333 16.6967C22.4121 16.5816 22.4794 16.4583 22.5348 16.3273C22.5905 16.1959 22.6327 16.0536 22.6611 15.9011C22.6896 15.748 22.7039 15.5768 22.7039 15.3878Z" fill="black"/>
<path fill-rule="evenodd" clip-rule="evenodd" d="M25.2646 15.3909C25.2646 15.3576 25.2651 15.3244 25.2658 15.2914L25.2776 14.209L25.3196 12.0459V9.70655L26.8404 9.20459V9.39486V12.3209C26.8675 12.3031 26.895 12.2857 26.9227 12.2686C27.1187 12.1483 27.3267 12.0478 27.5459 11.9674C27.7643 11.8873 27.9856 11.8273 28.2094 11.7877C28.4345 11.7477 28.662 11.7278 28.8913 11.7278C29.1246 11.7278 29.3545 11.7478 29.5808 11.7877C29.8062 11.8274 30.027 11.8874 30.2428 11.9674H30.2452C30.4571 12.046 30.6636 12.1473 30.8639 12.2711C31.0609 12.3929 31.2428 12.5321 31.4088 12.6884C31.5767 12.8464 31.729 13.0237 31.8652 13.2196L31.8663 13.2189C31.9992 13.4101 32.1155 13.6188 32.2151 13.845C32.3166 14.0751 32.3928 14.3219 32.4434 14.5851C32.4931 14.8433 32.5179 15.112 32.5179 15.3909C32.5179 15.9636 32.417 16.479 32.2151 16.9369C32.1155 17.163 31.9992 17.3718 31.8663 17.563L31.8652 17.5622C31.729 17.7584 31.5767 17.9355 31.4088 18.0935C31.2427 18.2499 31.0609 18.3891 30.8638 18.5108C30.6665 18.6327 30.46 18.7339 30.2449 18.8137L30.2452 18.8145C30.0308 18.894 29.8091 18.954 29.5807 18.9942C29.3545 19.0341 29.1244 19.0542 28.8913 19.0542C28.6619 19.0542 28.4346 19.0342 28.2095 18.9942C27.9857 18.9546 27.7643 18.8946 27.5459 18.8145C27.3267 18.7342 27.1189 18.6336 26.9227 18.5133C26.7253 18.3921 26.5423 18.2521 26.3737 18.0935C26.2059 17.9355 26.0536 17.7584 25.9174 17.5622L25.9163 17.563C25.7835 17.3717 25.6671 17.1629 25.5675 16.9369C25.4661 16.7068 25.3899 16.4599 25.3392 16.1968C25.2895 15.9386 25.2646 15.6699 25.2646 15.3909ZM30.9971 15.3909C30.9971 15.0308 30.9407 14.7175 30.8281 14.4514C30.7725 14.3204 30.7053 14.1972 30.6265 14.0821C30.5495 13.9698 30.4662 13.8717 30.3767 13.7879C30.2821 13.6995 30.1787 13.6205 30.0671 13.5513C29.9563 13.4826 29.8387 13.4249 29.7146 13.3784C29.4619 13.2837 29.1874 13.2363 28.8913 13.2363C28.5952 13.2363 28.3207 13.2837 28.068 13.3784C27.9439 13.4249 27.8262 13.4826 27.7155 13.5513C27.6039 13.6205 27.5006 13.6994 27.4059 13.7879C27.3165 13.8716 27.2331 13.9698 27.1562 14.0821C27.0773 14.1972 27.01 14.3204 26.9545 14.4514C26.8988 14.5829 26.8567 14.7251 26.8282 14.8777C26.7998 15.0308 26.7854 15.2019 26.7854 15.3909C26.7854 15.751 26.8418 16.0642 26.9545 16.3305C27.0099 16.4614 27.0773 16.5847 27.1562 16.6997C27.2331 16.812 27.3165 16.9102 27.4059 16.9939C27.5005 17.0825 27.6038 17.1614 27.7155 17.2306C27.8262 17.2992 27.9439 17.3569 28.068 17.4034C28.3207 17.4982 28.5952 17.5456 28.8913 17.5456C29.1874 17.5456 29.4619 17.4981 29.7146 17.4034C29.8387 17.3569 29.9563 17.2992 30.0671 17.2306C30.1787 17.1614 30.2821 17.0824 30.3767 16.9939C30.4662 16.9102 30.5495 16.812 30.6265 16.6997C30.7053 16.5847 30.7726 16.4614 30.8281 16.3305C30.8838 16.1989 30.9259 16.0567 30.9543 15.9042C30.9828 15.7511 30.9971 15.5799 30.9971 15.3909Z" fill="black"/>
<path fill-rule="evenodd" clip-rule="evenodd" d="M58.5615 15.3909C58.5615 15.3576 58.5619 15.3244 58.5626 15.2914L58.5744 14.209L58.6164 12.0459V9.70655L60.1372 9.20459V9.39486V12.3209C60.1644 12.3031 60.1918 12.2857 60.2196 12.2686C60.4156 12.1483 60.6235 12.0478 60.8428 11.9674C61.0612 11.8873 61.2825 11.8273 61.5063 11.7877C61.7314 11.7477 61.9589 11.7278 62.1882 11.7278C62.4214 11.7278 62.6514 11.7478 62.8777 11.7877C63.1031 11.8274 63.3239 11.8874 63.5396 11.9674H63.542C63.754 12.046 63.9604 12.1473 64.1608 12.2711C64.3578 12.3929 64.5397 12.5321 64.7057 12.6884C64.8735 12.8464 65.0258 13.0237 65.1621 13.2196L65.1632 13.2189C65.296 13.4101 65.4123 13.6188 65.512 13.845C65.6134 14.0751 65.6897 14.3219 65.7402 14.5851C65.7899 14.8433 65.8148 15.112 65.8148 15.3909C65.8148 15.9636 65.7139 16.479 65.512 16.9369C65.4123 17.163 65.296 17.3718 65.1632 17.563L65.1621 17.5622C65.0258 17.7584 64.8735 17.9355 64.7057 18.0935C64.5396 18.2499 64.3577 18.3891 64.1606 18.5108C63.9634 18.6327 63.7569 18.7339 63.5418 18.8137L63.542 18.8145C63.3276 18.894 63.106 18.954 62.8775 18.9942C62.6514 19.0341 62.4213 19.0542 62.1882 19.0542C61.9587 19.0542 61.7315 19.0342 61.5064 18.9942C61.2826 18.9546 61.0612 18.8946 60.8428 18.8145C60.6235 18.7342 60.4158 18.6336 60.2196 18.5133C60.0222 18.3921 59.8391 18.2521 59.6706 18.0935C59.5027 17.9355 59.3504 17.7584 59.2143 17.5622L59.2131 17.563C59.0803 17.3717 58.9639 17.1629 58.8644 16.9369C58.7629 16.7068 58.6867 16.4599 58.6361 16.1968C58.5864 15.9386 58.5615 15.6699 58.5615 15.3909ZM64.294 15.3909C64.294 15.0308 64.2376 14.7175 64.1249 14.4514C64.0694 14.3204 64.0021 14.1972 63.9233 14.0821C63.8464 13.9698 63.763 13.8717 63.6736 13.7879C63.5789 13.6995 63.4756 13.6205 63.364 13.5513C63.2532 13.4826 63.1356 13.4249 63.0114 13.3784C62.7588 13.2837 62.4843 13.2363 62.1882 13.2363C61.8921 13.2363 61.6176 13.2837 61.3649 13.3784C61.2408 13.4249 61.1231 13.4826 61.0123 13.5513C60.9008 13.6205 60.7974 13.6994 60.7028 13.7879C60.6133 13.8716 60.53 13.9698 60.453 14.0821C60.3742 14.1972 60.3069 14.3204 60.2514 14.4514C60.1957 14.5829 60.1536 14.7251 60.1251 14.8777C60.0966 15.0308 60.0823 15.2019 60.0823 15.3909C60.0823 15.751 60.1386 16.0642 60.2514 16.3305C60.3068 16.4614 60.3742 16.5847 60.453 16.6997C60.53 16.812 60.6133 16.9102 60.7028 16.9939C60.7974 17.0825 60.9007 17.1614 61.0123 17.2306C61.1231 17.2992 61.2408 17.3569 61.3649 17.4034C61.6176 17.4982 61.8921 17.5456 62.1882 17.5456C62.4843 17.5456 62.7588 17.4981 63.0114 17.4034C63.1356 17.3569 63.2532 17.2992 63.364 17.2306C63.4756 17.1614 63.5789 17.0824 63.6736 16.9939C63.763 16.9102 63.8464 16.812 63.9233 16.6997C64.0021 16.5847 64.0694 16.4614 64.1249 16.3305C64.1806 16.1989 64.2227 16.0567 64.2512 15.9042C64.2797 15.7511 64.294 15.5799 64.294 15.3909Z" fill="black"/>
<path fill-rule="evenodd" clip-rule="evenodd" d="M39.0896 18.3184V11.85H40.586V12.2521C40.6847 12.1881 40.7838 12.1307 40.8829 12.0803C41.012 12.0146 41.1504 11.9546 41.2976 11.9006C41.4539 11.8434 41.6178 11.8001 41.7891 11.7712C41.9591 11.7425 42.1299 11.728 42.3015 11.728C42.5931 11.728 42.8698 11.7669 43.1313 11.8444C43.3992 11.9237 43.6455 12.0433 43.8701 12.2029C44.047 12.3286 44.2036 12.4724 44.3396 12.6337C44.3849 12.5929 44.4317 12.5528 44.4798 12.5136C44.5875 12.4258 44.6985 12.3452 44.8125 12.2715C44.9228 12.2003 45.0464 12.1311 45.1827 12.0642C45.3146 11.9995 45.4475 11.9429 45.5812 11.8944C45.736 11.8384 45.8952 11.7967 46.0581 11.7697C46.2244 11.7419 46.3912 11.728 46.5583 11.728C46.9448 11.728 47.3049 11.7969 47.6386 11.9346C47.8098 12.0053 47.9658 12.0881 48.1057 12.1827C48.2492 12.2797 48.3828 12.3927 48.5059 12.5212C48.6264 12.6472 48.7338 12.7864 48.8274 12.9384H48.8298C48.9199 13.0848 48.997 13.2447 49.061 13.4176C49.1223 13.5839 49.1686 13.7596 49.1995 13.9442C49.2303 14.1277 49.2458 14.3133 49.2458 14.5008V18.9325H47.725V14.5131C47.725 14.3106 47.6963 14.1277 47.639 13.9644C47.5864 13.8146 47.5096 13.6851 47.4087 13.5765C47.3589 13.5228 47.3033 13.4745 47.2425 13.4317C47.1794 13.3875 47.1115 13.3494 47.0394 13.3179C46.9704 13.2878 46.895 13.2648 46.8136 13.2489H46.8112C46.7273 13.2325 46.6348 13.2243 46.5339 13.2243C46.4375 13.2243 46.3465 13.2319 46.2612 13.2468C46.1703 13.2627 46.0883 13.2843 46.0155 13.3116C45.84 13.3774 45.6818 13.4605 45.5411 13.5605C45.4726 13.6093 45.404 13.6645 45.3357 13.7261C45.2663 13.7886 45.2051 13.8499 45.1527 13.9097C45.0856 13.9861 45.0249 14.0604 44.9706 14.1325C44.9829 14.2466 44.989 14.3693 44.989 14.5008V18.9325H43.4683V14.5131C43.4683 14.3106 43.4396 14.1277 43.3823 13.9644C43.3298 13.8146 43.2529 13.6851 43.152 13.5765C43.1022 13.5228 43.0466 13.4745 42.9858 13.4317C42.9227 13.3875 42.8549 13.3494 42.7826 13.3179C42.7137 13.2878 42.6382 13.2648 42.5569 13.2489H42.5545C42.4706 13.2325 42.3781 13.2243 42.2771 13.2243C42.168 13.2243 42.0715 13.2319 41.988 13.247C41.8977 13.2639 41.813 13.2878 41.7342 13.319C41.6434 13.355 41.5545 13.3973 41.4676 13.4455C41.3826 13.4929 41.303 13.5443 41.2292 13.5996C41.1552 13.6552 41.0833 13.7166 41.0138 13.7835C40.9509 13.8442 40.8914 13.9097 40.8358 13.9796C40.7724 14.0593 40.714 14.1371 40.6608 14.2129L40.6103 14.2861V18.9325H39.0896V18.3184Z" fill="black"/>
<path fill-rule="evenodd" clip-rule="evenodd" d="M50.3325 15.3878C50.3325 15.1089 50.3574 14.8401 50.4071 14.5819C50.4578 14.3189 50.5339 14.0719 50.6353 13.8418C50.7349 13.6158 50.8513 13.407 50.9842 13.2157L50.9853 13.2165C51.1215 13.0205 51.2738 12.8432 51.4416 12.6853C51.61 12.5268 51.7932 12.3867 51.9906 12.2655C52.1866 12.1452 52.3945 12.0446 52.6138 11.9642C52.8322 11.8842 53.0535 11.8242 53.2773 11.7845C53.5024 11.7446 53.7298 11.7246 53.9591 11.7246C54.1924 11.7246 54.4224 11.7447 54.6487 11.7845C54.874 11.8243 55.0949 11.8843 55.3107 11.9642H55.3131C55.525 12.0428 55.7315 12.1442 55.9318 12.2679C56.1288 12.3897 56.3107 12.529 56.4768 12.6853C56.6446 12.8432 56.7969 13.0205 56.9331 13.2165L56.9342 13.2157C57.067 13.407 57.1834 13.6158 57.2831 13.8418C57.3845 14.0719 57.4607 14.3189 57.5112 14.582C57.561 14.8401 57.5858 15.1089 57.5858 15.3878C57.5858 15.9605 57.4848 16.4759 57.2831 16.9337C57.1834 17.1598 57.067 17.3686 56.9342 17.5599L56.9331 17.5591C56.7969 17.7552 56.6446 17.9324 56.4768 18.0903C56.3106 18.2468 56.1287 18.3859 55.9317 18.5077C55.7344 18.6296 55.5279 18.7307 55.3128 18.8106L55.3131 18.8114C55.0986 18.8909 54.877 18.9508 54.6486 18.9911C54.4224 19.031 54.1923 19.051 53.9591 19.051C53.7298 19.051 53.5025 19.0311 53.2773 18.9911C53.0536 18.9514 52.8322 18.8915 52.6138 18.8114C52.3945 18.7311 52.1867 18.6305 51.9906 18.5101C51.7932 18.3889 51.6101 18.2489 51.4416 18.0903C51.2738 17.9324 51.1215 17.7552 50.9853 17.5591L50.9842 17.5599C50.8513 17.3686 50.735 17.1598 50.6353 16.9337C50.5339 16.7037 50.4578 16.4567 50.4071 16.1937C50.3574 15.9355 50.3325 15.6668 50.3325 15.3878ZM56.065 15.3878C56.065 15.0277 56.0086 14.7144 55.896 14.4483C55.8404 14.3173 55.7731 14.194 55.6943 14.0789C55.6174 13.9667 55.534 13.8686 55.4446 13.7848C55.3499 13.6964 55.2466 13.6173 55.135 13.5481C55.0242 13.4795 54.9066 13.4218 54.7824 13.3753C54.5298 13.2806 54.2553 13.2331 53.9591 13.2331C53.6631 13.2331 53.3886 13.2805 53.1359 13.3753C53.0117 13.4218 52.8941 13.4795 52.7834 13.5481C52.6718 13.6173 52.5685 13.6963 52.4738 13.7848C52.3843 13.8685 52.301 13.9667 52.2241 14.0789C52.1452 14.194 52.0779 14.3173 52.0224 14.4483C51.9667 14.5797 51.9246 14.722 51.8961 14.8746C51.8676 15.0277 51.8533 15.1988 51.8533 15.3878C51.8533 15.7479 51.9097 16.0611 52.0224 16.3273C52.0778 16.4583 52.1452 16.5816 52.2241 16.6967C52.301 16.8089 52.3843 16.9071 52.4738 16.9908C52.5684 17.0793 52.6717 17.1583 52.7834 17.2274C52.8941 17.2961 53.0117 17.3538 53.1359 17.4003C53.3886 17.4951 53.6631 17.5425 53.9591 17.5425C54.2553 17.5425 54.5298 17.495 54.7824 17.4003C54.9066 17.3538 55.0242 17.2961 55.135 17.2274C55.2466 17.1583 55.3499 17.0792 55.4446 16.9908C55.534 16.9071 55.6174 16.8089 55.6943 16.6967C55.7731 16.5816 55.8405 16.4583 55.896 16.3273C55.9517 16.1959 55.9937 16.0536 56.0223 15.9011C56.0507 15.748 56.065 15.5768 56.065 15.3878Z" fill="black"/>
<path fill-rule="evenodd" clip-rule="evenodd" d="M66.8855 18.3186V11.8501H68.4062V18.9326H66.8855V18.3186Z" fill="black"/>
<path fill-rule="evenodd" clip-rule="evenodd" d="M33.5508 18.3186V11.8501H35.0715V18.9326H33.5508V18.3186Z" fill="black"/>
<path fill-rule="evenodd" clip-rule="evenodd" d="M33.1838 9.17334H35.5099V10.7695H33.1838V9.17334Z" fill="black"/>
<path fill-rule="evenodd" clip-rule="evenodd" d="M66.5134 9.17334H68.8394V10.7695H66.5134V9.17334Z" fill="black"/>
<path fill-rule="evenodd" clip-rule="evenodd" d="M30.1723 30.463H64.3195C66.2033 30.463 67.002 29.7331 67.914 28.7449L69.7554 28.7395C68.4601 31.0158 66.5885 31.9974 64.3195 31.9974H30.3936H12.6768L11.2209 32C9.76242 32 8.42759 31.5158 7.45233 30.7357C7.16299 30.5044 6.90501 30.2473 6.68395 29.9688L6.66202 29.941L6.64797 29.923L6.62048 29.8872L6.61882 29.8851C6.39854 29.5942 6.21791 29.281 6.08328 28.9508L6.08441 28.9512C5.90399 28.5081 5.80632 28.0341 5.80632 27.5411V6.87314L5.8042 6.87371V4.45879C5.8042 3.20659 6.43462 2.07638 7.45021 1.26418C8.42556 0.484236 9.7603 0 11.2187 0H64.3195C65.7779 0 67.1126 0.484236 68.088 1.26418C68.2263 1.37472 68.3565 1.49011 68.4789 1.6106L65.6849 1.72809C65.2613 1.60277 64.8014 1.53433 64.3195 1.53433C46.621 1.53433 28.9153 1.53704 11.2209 1.53704C10.1402 1.53704 9.16667 1.88357 8.46879 2.44157C7.81099 2.96763 7.40256 3.68329 7.40256 4.46149V27.5411C7.40256 28.1995 7.69496 28.8131 8.18329 29.305L8.18391 29.3051C8.27205 29.3936 8.3665 29.4782 8.46667 29.5584C9.16466 30.1164 10.1381 30.463 11.2187 30.463H15.4828H30.1723Z" fill="black"/>
</svg>
