<svg width="186" height="80" viewBox="0 0 186 80" fill="none" xmlns="http://www.w3.org/2000/svg">
<path fill-rule="evenodd" clip-rule="evenodd" d="M15.1056 12.3596C22.2093 11.0597 30.1052 10.8169 37.8012 10.3094C80.4635 7.49479 128.728 5.6946 171.459 3.91387C180.319 3.80263 187.808 3.79478 185.614 21.3521L180.655 61.042C178.614 74.2775 176.1 71.3888 166.324 71.9006C157.292 72.3735 146.115 71.9701 140.984 71.903C109.682 72.097 72.5682 71.6074 41.2666 71.8009C37.3218 71.8252 27.3474 71.7556 19.4502 71.9336C4.80132 72.2636 5.55769 67.4574 3.51443 53.1273L0.557721 32.3926C-1.44018 18.3802 1.59751 14.8313 15.1056 12.3596Z" fill="#FFC830"/>
<path fill-rule="evenodd" clip-rule="evenodd" d="M32.6475 25.2279V29.6247H39.0773V33.3958H32.6475V41.6489C32.6475 43.2949 33.219 43.834 34.8307 43.834C35.085 43.834 35.3186 43.8211 35.5308 43.7964C35.7447 43.7712 35.9505 43.7335 36.1469 43.6838C36.5621 43.5783 36.923 43.4445 37.2284 43.2821L39.438 42.1073V46.2429L38.652 46.6816C38.3909 46.8271 38.0993 46.9598 37.7785 47.0785C37.4775 47.1897 37.1577 47.2854 36.8201 47.365C36.4833 47.4443 36.1334 47.5041 35.7714 47.5437C35.3984 47.5847 35.0342 47.6053 34.6804 47.6053C33.8385 47.6053 33.0695 47.4824 32.374 47.237C31.634 46.9763 30.9987 46.5799 30.468 46.0485C29.9308 45.5108 29.5306 44.8613 29.2679 44.1002C29.0236 43.3933 28.9013 42.6063 28.9013 41.7404V33.3958H26.1973V29.6247H28.9013V24.3722L32.6475 23.1055V25.2279Z" fill="#242426"/>
<path fill-rule="evenodd" clip-rule="evenodd" d="M41.8086 38.4694C41.8086 37.772 41.8698 37.1003 41.9923 36.4548C42.1172 35.7971 42.3048 35.1798 42.5547 34.6046C42.7998 34.0397 43.0866 33.5175 43.4137 33.0392L43.4165 33.0412C43.7521 32.5513 44.1275 32.108 44.5407 31.7133C44.9555 31.317 45.4069 30.9668 45.893 30.6639C46.376 30.363 46.8882 30.1116 47.4283 29.9105C47.9663 29.7105 48.5116 29.5605 49.0628 29.4615C49.6173 29.3615 50.1777 29.3115 50.7425 29.3115C51.3173 29.3115 51.8837 29.3617 52.4413 29.4615C52.9964 29.5605 53.5404 29.7109 54.0719 29.9105H54.0779C54.6 30.107 55.1084 30.3606 55.602 30.6699C56.0874 30.9744 56.5354 31.3224 56.9445 31.7133C57.3578 32.108 57.7331 32.5513 58.0687 33.0412L58.0714 33.0392C58.3986 33.5173 58.6852 34.0393 58.9307 34.6046C59.1806 35.1798 59.3685 35.7971 59.4929 36.455C59.6154 37.1003 59.6766 37.772 59.6766 38.4694C59.6766 39.9012 59.4279 41.1898 58.9307 42.3344C58.6852 42.8996 58.3986 43.4215 58.0714 43.8997L58.0687 43.8977C57.7331 44.388 57.3578 44.8309 56.9445 45.2258C56.5352 45.6169 56.0872 45.9649 55.6017 46.2692C55.1158 46.5739 54.6071 46.8269 54.0771 47.0264L54.0779 47.0283C53.5496 47.2271 53.0035 47.377 52.4409 47.4778C51.8837 47.5775 51.3169 47.6276 50.7425 47.6276C50.1775 47.6276 49.6175 47.5776 49.063 47.4778C48.5118 47.3786 47.9663 47.2286 47.4283 47.0283C46.8882 46.8277 46.3764 46.5761 45.893 46.2752C45.4069 45.9723 44.9559 45.6223 44.5407 45.2258C44.1273 44.8309 43.7521 44.388 43.4165 43.8977L43.4137 43.8997C43.0866 43.4214 42.8 42.8993 42.5547 42.3344C42.3048 41.7591 42.1172 41.1419 41.9923 40.4841C41.8698 39.8386 41.8086 39.1669 41.8086 38.4694ZM55.9302 38.4694C55.9302 37.5692 55.7911 36.7859 55.5137 36.1206C55.3769 35.793 55.2112 35.4851 55.0169 35.1974C54.8275 34.9166 54.6221 34.6714 54.4016 34.4621C54.1687 34.2408 53.914 34.0433 53.6392 33.8704C53.3662 33.6987 53.0764 33.5544 52.7706 33.4381C52.1483 33.2014 51.4722 33.0827 50.7425 33.0827C50.0132 33.0827 49.3371 33.2014 48.7144 33.4381C48.4086 33.5544 48.1189 33.6987 47.8461 33.8704C47.5711 34.0433 47.3166 34.2406 47.0833 34.4621C46.8631 34.6712 46.6577 34.9166 46.4682 35.1974C46.2741 35.4851 46.1081 35.793 45.9714 36.1206C45.8344 36.4493 45.7305 36.805 45.6604 37.1864C45.5902 37.5692 45.5548 37.997 45.5548 38.4694C45.5548 39.3698 45.6937 40.1528 45.9714 40.8183C46.1079 41.1457 46.2741 41.4538 46.4682 41.7417C46.6577 42.0223 46.8631 42.2677 47.0833 42.477C47.3164 42.6983 47.5709 42.8955 47.8461 43.0686C48.1189 43.2401 48.4086 43.3845 48.7144 43.5007C49.3371 43.7377 50.0132 43.8562 50.7425 43.8562C51.4722 43.8562 52.1483 43.7375 52.7706 43.5007C53.0764 43.3845 53.3662 43.2401 53.6392 43.0686C53.914 42.8955 54.1687 42.6981 54.4016 42.477C54.6221 42.2677 54.8275 42.0223 55.0169 41.7417C55.2112 41.4538 55.3771 41.1457 55.5137 40.8183C55.6509 40.4896 55.7546 40.1339 55.8249 39.7527C55.895 39.3699 55.9302 38.9419 55.9302 38.4694Z" fill="#242426"/>
<path fill-rule="evenodd" clip-rule="evenodd" d="M62.2383 38.478C62.2383 38.3946 62.2395 38.3118 62.2411 38.229L62.2701 35.5233L62.3736 30.1153V24.2669L66.1199 23.0122V23.4877V30.8027C66.1868 30.7585 66.2546 30.7149 66.3229 30.6723C66.8057 30.3714 67.3179 30.1202 67.858 29.9191C68.3963 29.7188 68.9414 29.5689 69.4926 29.4698C70.0473 29.37 70.6075 29.3201 71.1724 29.3201C71.7471 29.3201 72.3134 29.3702 72.871 29.4698C73.4261 29.5691 73.9701 29.7192 74.5017 29.9191H74.5076C75.0297 30.1156 75.5381 30.3689 76.0318 30.6785C76.5172 30.9828 76.9652 31.3307 77.3742 31.7217C77.7875 32.1164 78.1628 32.5599 78.4984 33.0496L78.5012 33.0478C78.8283 33.5259 79.1149 34.0477 79.3605 34.613C79.6103 35.1884 79.7982 35.8056 79.9226 36.4635C80.0451 37.1088 80.1063 37.7806 80.1063 38.478C80.1063 39.9095 79.8576 41.1981 79.3605 42.3428C79.1149 42.9081 78.8283 43.4301 78.5012 43.908L78.4984 43.9063C78.1628 44.3964 77.7875 44.8394 77.3742 45.2343C76.965 45.6255 76.5169 45.9733 76.0314 46.2776C75.5455 46.5825 75.0368 46.8353 74.5069 47.0349L74.5076 47.0367C73.9794 47.2356 73.4334 47.3854 72.8706 47.4862C72.3134 47.586 71.7467 47.6361 71.1724 47.6361C70.6073 47.6361 70.0473 47.586 69.4928 47.4862C68.9415 47.387 68.3963 47.2372 67.858 47.0367C67.3179 46.8361 66.8061 46.5847 66.3229 46.2838C65.8366 45.9807 65.3857 45.6306 64.9704 45.2343C64.5569 44.8394 64.1818 44.3964 63.8462 43.9063L63.8435 43.908C63.5164 43.43 63.2297 42.9079 62.9844 42.3428C62.7345 41.7677 62.5469 41.1502 62.422 40.4927C62.2995 39.8472 62.2383 39.1752 62.2383 38.478ZM76.3601 38.478C76.3601 37.5777 76.2211 36.7945 75.9435 36.1292C75.8066 35.8016 75.6409 35.4935 75.4469 35.2058C75.2572 34.9252 75.0518 34.68 74.8316 34.4705C74.5985 34.2494 74.3439 34.0517 74.0689 33.8787C73.7961 33.7071 73.5061 33.563 73.2005 33.4467C72.5781 33.2099 71.9019 33.0912 71.1724 33.0912C70.4429 33.0912 69.7667 33.2098 69.1443 33.4467C68.8385 33.563 68.5486 33.7071 68.2757 33.8787C68.001 34.0517 67.7464 34.2492 67.5131 34.4705C67.2928 34.6798 67.0876 34.9252 66.898 35.2058C66.7038 35.4935 66.5378 35.8016 66.4012 36.1292C66.264 36.4579 66.1601 36.8133 66.09 37.1949C66.0199 37.5777 65.9845 38.0055 65.9845 38.478C65.9845 39.3783 66.1236 40.1614 66.4012 40.8267C66.5376 41.1541 66.7038 41.4623 66.898 41.75C67.0876 42.0307 67.2928 42.2762 67.5131 42.4854C67.7462 42.7066 68.0008 42.9041 68.2757 43.0771C68.5486 43.2487 68.8385 43.3931 69.1443 43.5093C69.7667 43.7461 70.4429 43.8645 71.1724 43.8645C71.9019 43.8645 72.5781 43.7459 73.2005 43.5093C73.5061 43.3931 73.7961 43.2487 74.0689 43.0771C74.3439 42.9041 74.5985 42.7066 74.8316 42.4854C75.0518 42.2762 75.2572 42.0307 75.4469 41.75C75.6409 41.4623 75.8068 41.1541 75.9435 40.8267C76.0806 40.4979 76.1845 40.1425 76.2546 39.7612C76.3248 39.3785 76.3601 38.9505 76.3601 38.478Z" fill="#242426"/>
<path fill-rule="evenodd" clip-rule="evenodd" d="M144.262 38.478C144.262 38.3946 144.263 38.3118 144.265 38.229L144.293 35.5233L144.397 30.1153V24.2669L148.143 23.0122V23.4877V30.8027C148.21 30.7585 148.278 30.7149 148.346 30.6723C148.829 30.3714 149.341 30.1202 149.881 29.9191C150.42 29.7188 150.965 29.5689 151.516 29.4698C152.07 29.37 152.631 29.3201 153.196 29.3201C153.77 29.3201 154.337 29.3702 154.894 29.4698C155.45 29.5691 155.993 29.7192 156.525 29.9191H156.531C157.053 30.1156 157.562 30.3689 158.055 30.6785C158.54 30.9828 158.989 31.3307 159.398 31.7217C159.811 32.1164 160.186 32.5599 160.522 33.0496L160.524 33.0478C160.852 33.5259 161.138 34.0477 161.384 34.613C161.634 35.1884 161.821 35.8056 161.946 36.4635C162.068 37.1088 162.13 37.7806 162.13 38.478C162.13 39.9095 161.881 41.1981 161.384 42.3428C161.138 42.9081 160.852 43.4301 160.524 43.908L160.522 43.9063C160.186 44.3964 159.811 44.8394 159.398 45.2343C158.988 45.6255 158.54 45.9733 158.055 46.2776C157.569 46.5825 157.06 46.8353 156.53 47.0349L156.531 47.0367C156.003 47.2356 155.457 47.3854 154.894 47.4862C154.337 47.586 153.77 47.6361 153.196 47.6361C152.631 47.6361 152.071 47.586 151.516 47.4862C150.965 47.387 150.42 47.2372 149.881 47.0367C149.341 46.8361 148.829 46.5847 148.346 46.2838C147.86 45.9807 147.409 45.6306 146.994 45.2343C146.58 44.8394 146.205 44.3964 145.87 43.9063L145.867 43.908C145.54 43.43 145.253 42.9079 145.008 42.3428C144.758 41.7677 144.57 41.1502 144.445 40.4927C144.323 39.8472 144.262 39.1752 144.262 38.478ZM158.383 38.478C158.383 37.5777 158.244 36.7945 157.967 36.1292C157.83 35.8016 157.664 35.4935 157.47 35.2058C157.281 34.9252 157.075 34.68 156.855 34.4705C156.622 34.2494 156.367 34.0517 156.092 33.8787C155.819 33.7071 155.53 33.563 155.224 33.4467C154.601 33.2099 153.925 33.0912 153.196 33.0912C152.466 33.0912 151.79 33.2098 151.168 33.4467C150.862 33.563 150.572 33.7071 150.299 33.8787C150.024 34.0517 149.77 34.2492 149.537 34.4705C149.316 34.6798 149.111 34.9252 148.921 35.2058C148.727 35.4935 148.561 35.8016 148.425 36.1292C148.287 36.4579 148.184 36.8133 148.113 37.1949C148.043 37.5777 148.008 38.0055 148.008 38.478C148.008 39.3783 148.147 40.1614 148.425 40.8267C148.561 41.1541 148.727 41.4623 148.921 41.75C149.111 42.0307 149.316 42.2762 149.537 42.4854C149.77 42.7066 150.024 42.9041 150.299 43.0771C150.572 43.2487 150.862 43.3931 151.168 43.5093C151.79 43.7461 152.466 43.8645 153.196 43.8645C153.925 43.8645 154.601 43.7459 155.224 43.5093C155.53 43.3931 155.819 43.2487 156.092 43.0771C156.367 42.9041 156.622 42.7066 156.855 42.4854C157.075 42.2762 157.281 42.0307 157.47 41.75C157.664 41.4623 157.83 41.1541 157.967 40.8267C158.104 40.4979 158.208 40.1425 158.278 39.7612C158.348 39.3785 158.383 38.9505 158.383 38.478Z" fill="#242426"/>
<path fill-rule="evenodd" clip-rule="evenodd" d="M96.2949 45.796V29.6248H99.9812V30.6301C100.224 30.4702 100.468 30.3266 100.713 30.2005C101.03 30.0361 101.372 29.8864 101.734 29.7513C102.119 29.6084 102.523 29.5001 102.945 29.4277C103.364 29.3562 103.784 29.3198 104.207 29.3198C104.925 29.3198 105.607 29.4169 106.251 29.6108C106.911 29.809 107.518 30.1081 108.071 30.5072C108.507 30.8216 108.893 31.1808 109.228 31.5841C109.34 31.4819 109.455 31.3817 109.573 31.2837C109.839 31.0645 110.112 30.8627 110.393 30.6786C110.665 30.5006 110.969 30.3276 111.305 30.1602C111.63 29.9987 111.957 29.8571 112.287 29.736C112.668 29.5959 113.06 29.4917 113.461 29.4239C113.871 29.3548 114.282 29.3198 114.693 29.3198C115.645 29.3198 116.533 29.492 117.355 29.8363C117.777 30.0131 118.161 30.22 118.506 30.4565C118.859 30.6991 119.188 30.9815 119.491 31.3029C119.788 31.6178 120.053 31.9658 120.283 32.3459H120.289C120.511 32.712 120.701 33.1115 120.859 33.5439C121.01 33.9595 121.124 34.3989 121.2 34.8603C121.276 35.319 121.314 35.7829 121.314 36.2518V47.331H117.568V36.2824C117.568 35.7763 117.497 35.319 117.356 34.9109C117.226 34.5362 117.037 34.2127 116.789 33.941C116.666 33.8069 116.529 33.686 116.379 33.5792C116.224 33.4685 116.056 33.3733 115.879 33.2945C115.709 33.2193 115.523 33.1618 115.323 33.1221H115.317C115.11 33.0812 114.882 33.0606 114.633 33.0606C114.396 33.0606 114.172 33.0794 113.962 33.1167C113.738 33.1566 113.536 33.2107 113.356 33.2789C112.924 33.4434 112.534 33.6509 112.188 33.9011C112.019 34.023 111.85 34.1611 111.682 34.3149C111.511 34.4712 111.36 34.6246 111.231 34.7742C111.066 34.965 110.916 35.1506 110.782 35.3313C110.813 35.6163 110.828 35.923 110.828 36.2518V47.331H107.082V36.2824C107.082 35.7763 107.011 35.319 106.87 34.9109C106.74 34.5362 106.551 34.2127 106.302 33.941C106.18 33.8069 106.043 33.686 105.893 33.5792C105.738 33.4685 105.57 33.3733 105.392 33.2945C105.223 33.2193 105.037 33.1618 104.836 33.1221H104.83C104.624 33.0812 104.396 33.0606 104.147 33.0606C103.878 33.0606 103.641 33.0796 103.435 33.1173C103.212 33.1596 103.004 33.2191 102.81 33.2973C102.586 33.3873 102.367 33.493 102.153 33.6137C101.943 33.7319 101.748 33.8606 101.566 33.999C101.383 34.1379 101.206 34.2912 101.035 34.4586C100.88 34.6104 100.734 34.7742 100.597 34.9488C100.44 35.148 100.297 35.3427 100.165 35.5319L100.041 35.7151V47.331H96.2949V45.796Z" fill="#242426"/>
<path fill-rule="evenodd" clip-rule="evenodd" d="M123.99 38.4694C123.99 37.772 124.051 37.1003 124.174 36.4548C124.299 35.7971 124.486 35.1798 124.736 34.6046C124.982 34.0397 125.268 33.5175 125.595 33.0392L125.598 33.0412C125.934 32.5513 126.309 32.108 126.722 31.7133C127.137 31.317 127.589 30.9668 128.075 30.6639C128.558 30.363 129.07 30.1116 129.61 29.9105C130.148 29.7105 130.693 29.5605 131.245 29.4615C131.799 29.3615 132.359 29.3115 132.924 29.3115C133.499 29.3115 134.065 29.3617 134.623 29.4615C135.178 29.5605 135.722 29.7109 136.254 29.9105H136.259C136.782 30.107 137.29 30.3606 137.784 30.6699C138.269 30.9744 138.717 31.3224 139.126 31.7133C139.539 32.108 139.915 32.5513 140.25 33.0412L140.253 33.0392C140.58 33.5173 140.867 34.0393 141.112 34.6046C141.362 35.1798 141.55 35.7971 141.675 36.455C141.797 37.1003 141.858 37.772 141.858 38.4694C141.858 39.9012 141.61 41.1898 141.112 42.3344C140.867 42.8996 140.58 43.4215 140.253 43.8997L140.25 43.8977C139.915 44.388 139.539 44.8309 139.126 45.2258C138.717 45.6169 138.269 45.9649 137.783 46.2692C137.297 46.5739 136.789 46.8269 136.259 47.0264L136.259 47.0283C135.731 47.2271 135.185 47.377 134.623 47.4778C134.065 47.5775 133.499 47.6276 132.924 47.6276C132.359 47.6276 131.799 47.5776 131.245 47.4778C130.693 47.3786 130.148 47.2286 129.61 47.0283C129.07 46.8277 128.558 46.5761 128.075 46.2752C127.589 45.9723 127.138 45.6223 126.722 45.2258C126.309 44.8309 125.934 44.388 125.598 43.8977L125.595 43.8997C125.268 43.4214 124.982 42.8993 124.736 42.3344C124.486 41.7591 124.299 41.1419 124.174 40.4841C124.051 39.8386 123.99 39.1669 123.99 38.4694ZM138.112 38.4694C138.112 37.5692 137.973 36.7859 137.695 36.1206C137.559 35.793 137.393 35.4851 137.199 35.1974C137.009 34.9166 136.804 34.6714 136.583 34.4621C136.35 34.2408 136.096 34.0433 135.821 33.8704C135.548 33.6987 135.258 33.5544 134.952 33.4381C134.33 33.2014 133.654 33.0827 132.924 33.0827C132.195 33.0827 131.519 33.2014 130.896 33.4381C130.59 33.5544 130.301 33.6987 130.028 33.8704C129.753 34.0433 129.498 34.2406 129.265 34.4621C129.045 34.6712 128.839 34.9166 128.65 35.1974C128.456 35.4851 128.29 35.793 128.153 36.1206C128.016 36.4493 127.912 36.805 127.842 37.1864C127.772 37.5692 127.736 37.997 127.736 38.4694C127.736 39.3698 127.875 40.1528 128.153 40.8183C128.29 41.1457 128.456 41.4538 128.65 41.7417C128.839 42.0223 129.045 42.2677 129.265 42.477C129.498 42.6983 129.753 42.8955 130.028 43.0686C130.301 43.2401 130.59 43.3845 130.896 43.5007C131.519 43.7377 132.195 43.8562 132.924 43.8562C133.654 43.8562 134.33 43.7375 134.952 43.5007C135.258 43.3845 135.548 43.2401 135.821 43.0686C136.096 42.8955 136.35 42.6981 136.583 42.477C136.804 42.2677 137.009 42.0223 137.199 41.7417C137.393 41.4538 137.559 41.1457 137.695 40.8183C137.833 40.4896 137.936 40.1339 138.006 39.7527C138.077 39.3699 138.112 38.9419 138.112 38.4694Z" fill="#242426"/>
<path fill-rule="evenodd" clip-rule="evenodd" d="M164.768 45.7957V29.6245H168.514V47.3307H164.768V45.7957Z" fill="#242426"/>
<path fill-rule="evenodd" clip-rule="evenodd" d="M82.6504 45.7957V29.6245H86.3968V47.3307H82.6504V45.7957Z" fill="#242426"/>
<path fill-rule="evenodd" clip-rule="evenodd" d="M81.7461 22.9336H87.476V26.9241H81.7461V22.9336Z" fill="#242426"/>
<path fill-rule="evenodd" clip-rule="evenodd" d="M163.852 22.9336H169.581V26.9241H163.852V22.9336Z" fill="#242426"/>
<path fill-rule="evenodd" clip-rule="evenodd" d="M74.0294 76.1573H158.149C162.789 76.1573 164.757 74.3326 167.004 71.8622L171.54 71.8488C168.349 77.5394 163.738 79.9932 158.149 79.9932H74.5745H30.9301L27.3437 80C23.7509 80 20.4625 78.7894 18.0601 76.839C17.3472 76.2609 16.7119 75.6182 16.1673 74.922L16.1132 74.8524L16.0787 74.8073L16.0109 74.7179L16.007 74.7125C15.4641 73.9854 15.0192 73.2026 14.6874 72.3769L14.6904 72.3778C14.2459 71.2701 14.0053 70.0851 14.0053 68.8529V17.1828L14 17.1842V11.1471C14 8.01663 15.553 5.19086 18.0548 3.16056C20.4576 1.21059 23.7457 0 27.3383 0H158.149C161.741 0 165.03 1.21059 167.432 3.16056C167.773 3.437 168.094 3.72547 168.395 4.02652L161.512 4.32022C160.469 4.00693 159.336 3.83593 158.149 3.83593C114.55 3.83593 70.9326 3.84272 27.3437 3.84272C24.6815 3.84272 22.2832 4.70897 20.5641 6.104C18.9437 7.41904 17.9375 9.20819 17.9375 11.1538V68.8529C17.9375 70.4987 18.6578 72.0327 19.8608 73.2625L19.8624 73.2627C20.0793 73.4841 20.312 73.6953 20.5589 73.896C22.2783 75.2908 24.6765 76.1573 27.3383 76.1573H37.8427H74.0294Z" fill="#242426"/>
</svg>
