<svg width="32" height="32" viewBox="0 0 32 32" fill="none" xmlns="http://www.w3.org/2000/svg">
<path d="M2 31C2 31 3.68 22 16 22C28.32 22 30 31 30 31" stroke="#242426" stroke-width="2" stroke-linecap="round" stroke-linejoin="round"/>
<path d="M10 23C10 23 10.72 29 16 29C21.28 29 22 23 22 23" stroke="#242426" stroke-width="2"/>
<path d="M22 12C22 15.3137 19.3137 18 16 18V20C20.4183 20 24 16.4183 24 12H22ZM16 18C12.6863 18 10 15.3137 10 12H8C8 16.4183 11.5817 20 16 20V18ZM20.1991 7.71427C21.3116 8.80445 22 10.3209 22 12H24C24 9.76174 23.0795 7.73664 21.5989 6.28579L20.1991 7.71427ZM10 12C10 10.3209 10.6884 8.80445 11.8009 7.71427L10.4011 6.28579C8.92053 7.73664 8 9.76174 8 12H10Z" fill="#242426"/>
<path d="M21 5C21 6.65685 18.7614 8.5 16 8.5C13.2386 8.5 11 6.65685 11 5C11 3.34315 12.2386 1 15 1C16.1921 1 15.6395 2.59525 17.5 3.5C19.3605 4.40475 21 3.5 21 5Z" stroke="#242426" stroke-width="2"/>
</svg>
