<svg width="32" height="32" viewBox="0 0 32 32" fill="none" xmlns="http://www.w3.org/2000/svg">
<path d="M31 4.75007H27.6624C27.335 4.75007 27.0572 5.00842 27.0154 5.3552L26.5772 9.06613C26.4963 9.7583 25.9407 10.2764 25.2833 10.2764H2.958C1.63416 10.2764 0.697687 11.6386 1.09027 12.9663L3.12886 19.8742C3.3832 20.7419 4.13968 21.329 4.99659 21.329H23.8265C25.5494 21.329 25.5507 24.0922 23.8265 24.0922H5.56656" stroke="#242426" stroke-width="2" stroke-linecap="round" stroke-linejoin="round"/>
<path d="M25.7831 13.0395L25.131 19.2566" stroke="#242426" stroke-width="2" stroke-linecap="round" stroke-linejoin="round"/>
<path fill-rule="evenodd" clip-rule="evenodd" d="M9.96881 29.125C9.96881 30.16 9.12881 31 8.09381 31C7.05881 31 6.21881 30.16 6.21881 29.125C6.21881 28.09 7.05881 27.25 8.09381 27.25C9.12881 27.25 9.96881 28.09 9.96881 29.125Z" stroke="#242426" stroke-width="2" stroke-linejoin="round"/>
<path fill-rule="evenodd" clip-rule="evenodd" d="M24.3159 29.125C24.3159 30.16 23.4759 31 22.4409 31C21.4059 31 20.5659 30.16 20.5659 29.125C20.5659 28.09 21.4059 27.25 22.4409 27.25C23.4759 27.25 24.3159 28.09 24.3159 29.125Z" stroke="#242426" stroke-width="2" stroke-linejoin="round"/>
<path d="M14.6953 9.48696L19.9127 4.4118L25.2318 9.48696" stroke="#242426" stroke-width="2" stroke-linecap="round" stroke-linejoin="round"/>
<path d="M8.17391 9.48695L4.26087 1L1 2.50859L4.26087 9.48695" stroke="#242426" stroke-width="2" stroke-linecap="round" stroke-linejoin="round"/>
<path d="M12.7391 9.48688V5.6805H18.6087" stroke="#242426" stroke-width="2" stroke-linecap="round" stroke-linejoin="round"/>
</svg>
