<svg width="32" height="32" viewBox="0 0 32 32" fill="none" xmlns="http://www.w3.org/2000/svg">
<path d="M31 5H27.6624C27.335 5 27.0572 5.2559 27.0154 5.59937L26.5772 9.27496C26.4963 9.96055 25.9407 10.4737 25.2833 10.4737H2.958C1.63416 10.4737 0.697687 11.823 1.09027 13.138L3.12886 19.9802C3.3832 20.8395 4.13968 21.4211 4.99659 21.4211H23.8265C25.5494 21.4211 25.5507 24.158 23.8265 24.158H5.56656" stroke="#242426" stroke-width="2" stroke-linecap="round" stroke-linejoin="round"/>
<path d="M25.7831 13.2105L25.131 19.3684" stroke="#242426" stroke-width="2" stroke-linecap="round" stroke-linejoin="round"/>
<path fill-rule="evenodd" clip-rule="evenodd" d="M9.96881 29.1428C9.96881 30.168 9.12881 31 8.09381 31C7.05881 31 6.21881 30.168 6.21881 29.1428C6.21881 28.1177 7.05881 27.2857 8.09381 27.2857C9.12881 27.2857 9.96881 28.1177 9.96881 29.1428Z" stroke="#242426" stroke-width="2" stroke-linejoin="round"/>
<path fill-rule="evenodd" clip-rule="evenodd" d="M24.3159 29.1428C24.3159 30.168 23.4759 31 22.4409 31C21.4059 31 20.5659 30.168 20.5659 29.1428C20.5659 28.1177 21.4059 27.2857 22.4409 27.2857C23.4759 27.2857 24.3159 28.1177 24.3159 29.1428Z" stroke="#242426" stroke-width="2" stroke-linejoin="round"/>
</svg>
