<svg width="34" height="32" viewBox="0 0 34 32" fill="none" xmlns="http://www.w3.org/2000/svg">
<path d="M20.6984 26.1961H4.62076C3.14162 26.1961 1.94116 24.9793 1.94116 23.4771V9.88235C1.94116 8.38148 3.14162 7.16339 4.62076 7.16339H19.3586" stroke="#242426" stroke-width="2" stroke-linecap="round" stroke-linejoin="round"/>
<path d="M1.94116 12.6013H19.3586" stroke="#242426" stroke-width="2" stroke-linecap="round" stroke-linejoin="round"/>
<path d="M16.6798 16.6797H5.96136" stroke="#242426" stroke-width="2" stroke-linecap="round" stroke-linejoin="round"/>
<path d="M9.98076 19.3987H5.96136" stroke="#242426" stroke-width="2" stroke-linecap="round" stroke-linejoin="round"/>
<path d="M22.7518 20.7628C22.7518 23.373 24.8352 25.487 27.4063 25.487C29.9774 25.487 32.0594 23.373 32.0594 20.7628C32.0594 18.1567 29.9774 16.0427 27.4063 16.0427C24.8352 16.0427 22.7518 13.9287 22.7518 11.3185C22.7518 8.71103 24.8352 6.59705 27.4063 6.59705C29.9774 6.59705 32.0594 8.71103 32.0594 11.3185" stroke="#242426" stroke-width="2" stroke-linecap="round" stroke-linejoin="round"/>
<path d="M27.4056 3.76471L27.397 28.2353" stroke="#242426" stroke-width="2" stroke-linecap="round" stroke-linejoin="round"/>
</svg>
