<svg width="32" height="32" viewBox="0 0 32 32" fill="none" xmlns="http://www.w3.org/2000/svg">
<path d="M16 7.89062V28" stroke="#242426" stroke-width="2" stroke-linecap="round" stroke-linejoin="round"/>
<path d="M12.0197 28H19.9424" stroke="#242426" stroke-width="2" stroke-linecap="round" stroke-linejoin="round"/>
<path fill-rule="evenodd" clip-rule="evenodd" d="M17.9909 5.94533C17.9909 7.02133 17.0991 7.89067 16 7.89067C14.9009 7.89067 14.0104 7.02133 14.0104 5.94533C14.0104 4.87067 14.9009 4 16 4C17.0991 4 17.9909 4.87067 17.9909 5.94533Z" stroke="#242426" stroke-width="2" stroke-linecap="round" stroke-linejoin="round"/>
<path d="M1.00134 15.9709L5.7727 5.30692L10.5277 15.9709" stroke="#242426" stroke-width="2" stroke-linecap="round" stroke-linejoin="round"/>
<path d="M14.0996 5.3072H3.72778" stroke="#242426" stroke-width="2" stroke-linecap="round" stroke-linejoin="round"/>
<path fill-rule="evenodd" clip-rule="evenodd" d="M10.5454 15.9739C10.5454 18.5512 8.40862 20.6406 5.77272 20.6406C3.13681 20.6406 1 18.5512 1 15.9739H10.5454Z" stroke="#242426" stroke-width="2" stroke-linecap="round" stroke-linejoin="round"/>
<path d="M30.9984 15.9709L26.227 5.30692L21.472 15.9709" stroke="#242426" stroke-width="2" stroke-linecap="round" stroke-linejoin="round"/>
<path d="M17.9003 5.3072H28.2721" stroke="#242426" stroke-width="2" stroke-linecap="round" stroke-linejoin="round"/>
<path fill-rule="evenodd" clip-rule="evenodd" d="M21.4546 15.9739C21.4546 18.5512 23.5914 20.6406 26.2273 20.6406C28.8632 20.6406 31 18.5512 31 15.9739H21.4546Z" stroke="#242426" stroke-width="2" stroke-linecap="round" stroke-linejoin="round"/>
</svg>
