<svg width="34" height="32" viewBox="0 0 34 32" fill="none" xmlns="http://www.w3.org/2000/svg">
<path fill-rule="evenodd" clip-rule="evenodd" d="M6.52426 10.9581C5.44003 10.9581 4.56007 10.032 4.56007 8.8909C4.56007 7.74841 5.44003 6.82367 6.52426 6.82367H7.83373C6.74949 6.82367 5.86953 5.89756 5.86953 4.75645C5.86953 3.61396 6.74949 3.3783 7.83373 3.3783H16.3452C20.0785 3.3783 20.9284 4.06738 25.5115 4.75645V16.4707C22.3033 16.4707 17 22.6724 17 28.185C17 30.3638 14.1349 31.1756 13.0716 27.1941C12.4168 24.7396 14.381 19.9161 14.381 19.9161H3.90534C2.8211 19.9161 1.94114 18.99 1.94114 17.8489C1.94114 16.7064 2.8211 15.0926 3.90534 15.0926H5.2148C4.13056 15.0926 3.25061 14.1665 3.25061 13.0253C3.25061 11.8829 4.13056 10.9581 5.2148 10.9581H6.52426Z" stroke="#242426" stroke-width="2" stroke-linecap="round" stroke-linejoin="round"/>
<path fill-rule="evenodd" clip-rule="evenodd" d="M32.0588 1.99999H25.5115V18.5378H32.0588V1.99999Z" stroke="#242426" stroke-width="2" stroke-linecap="round" stroke-linejoin="round"/>
<path fill-rule="evenodd" clip-rule="evenodd" d="M28.1302 5.44548C28.4916 5.44548 28.7849 5.13677 28.7849 4.75641C28.7849 4.37604 28.4916 4.06733 28.1302 4.06733C27.7688 4.06733 27.4754 4.37604 27.4754 4.75641C27.4754 5.13677 27.7688 5.44548 28.1302 5.44548Z" fill="#242426"/>
</svg>
