<svg width="23" height="15" viewBox="0 0 23 15" fill="none" xmlns="http://www.w3.org/2000/svg">
<path fill-rule="evenodd" clip-rule="evenodd" d="M8.10524 0.582265C8.20127 0.678059 8.27747 0.791858 8.32945 0.917145C8.38144 1.04243 8.4082 1.17674 8.4082 1.31239C8.4082 1.44803 8.38144 1.58235 8.32945 1.70763C8.27747 1.83292 8.20127 1.94672 8.10524 2.04251L2.6458 7.49989L8.10523 12.9573C8.29888 13.1509 8.40766 13.4135 8.40766 13.6874C8.40766 13.9612 8.29888 14.2239 8.10523 14.4175C7.91159 14.6112 7.64896 14.7199 7.37511 14.7199C7.10126 14.7199 6.83863 14.6112 6.64498 14.4175L0.457485 8.23001C0.361449 8.13422 0.285255 8.02042 0.233266 7.89513C0.181278 7.76985 0.154518 7.63553 0.154518 7.49989C0.154518 7.36424 0.181278 7.22993 0.233267 7.10464C0.285255 6.97936 0.361449 6.86556 0.457485 6.76976L6.64499 0.582265C6.74078 0.486228 6.85458 0.410033 6.97987 0.358045C7.10515 0.306056 7.23947 0.279297 7.37511 0.279297C7.51076 0.279297 7.64507 0.306056 7.77035 0.358045C7.89564 0.410033 8.00944 0.486228 8.10524 0.582265Z" fill="#FFC82D"/>
<path fill-rule="evenodd" clip-rule="evenodd" d="M22.8437 7.5C22.8437 7.7735 22.7351 8.03581 22.5417 8.2292C22.3483 8.4226 22.086 8.53125 21.8125 8.53125L3.25 8.53125C2.9765 8.53125 2.71419 8.4226 2.5208 8.2292C2.3274 8.03581 2.21875 7.7735 2.21875 7.5C2.21875 7.22649 2.3274 6.96419 2.5208 6.7708C2.71419 6.5774 2.9765 6.46875 3.25 6.46875L21.8125 6.46875C22.086 6.46875 22.3483 6.5774 22.5417 6.7708C22.7351 6.96419 22.8437 7.2265 22.8437 7.5Z" fill="#FFC82D"/>
</svg>
