<svg width="24" height="24" viewBox="0 0 24 24" fill="none" xmlns="http://www.w3.org/2000/svg">
<path d="M16.7924 13.6001C16.9839 13.0885 17.081 12.5464 17.0791 12.0001C17.0791 10.7872 16.5973 9.62392 15.7396 8.76626C14.882 7.90859 13.7187 7.42676 12.5058 7.42676C11.9662 7.42739 11.4312 7.52447 10.9258 7.71342L11.9991 8.82009C12.1623 8.79399 12.3272 8.78061 12.4924 8.78009C13.3501 8.7783 14.1736 9.11592 14.7831 9.71922C15.3927 10.3225 15.7387 11.1425 15.7458 12.0001C15.7452 12.1653 15.7319 12.3303 15.7058 12.4934L16.7924 13.6001Z" fill="#7B7B7C"/>
<path d="M22.8603 11.6867C20.6136 7.53335 16.6736 5.02002 12.3136 5.02002C11.1265 5.02281 9.94742 5.21408 8.82031 5.58669L9.89365 6.66669C10.6842 6.46237 11.4971 6.35712 12.3136 6.35335C16.067 6.35335 19.4803 8.44668 21.5136 11.9734C20.7678 13.2818 19.7789 14.4357 18.6003 15.3734L19.547 16.32C20.911 15.2196 22.0439 13.8601 22.8803 12.32L23.0536 12L22.8603 11.6867Z" fill="#7B7B7C"/>
<path d="M3.24594 3.8532L6.21927 6.82653C4.33988 8.0366 2.80387 9.71038 1.75927 11.6865L1.58594 11.9999L1.75927 12.3199C4.00594 16.4732 7.94594 18.9865 12.3059 18.9865C14.0077 18.9862 15.6874 18.601 17.2193 17.8599L20.5526 21.1932L21.7193 20.1932L4.38594 2.85986L3.24594 3.8532ZM9.74594 10.3532L14.1793 14.7865C13.6784 15.0966 13.1017 15.2627 12.5126 15.2665C12.0846 15.2665 11.6607 15.1819 11.2655 15.0175C10.8703 14.8531 10.5115 14.6121 10.2098 14.3085C9.90802 14.0049 9.66929 13.6447 9.50731 13.2485C9.34533 12.8522 9.2633 12.4279 9.26594 11.9999C9.27345 11.4176 9.43939 10.8483 9.74594 10.3532ZM8.77927 9.38653C8.15556 10.2661 7.86322 11.3381 7.95401 12.4125C8.04481 13.487 8.51288 14.4947 9.27534 15.2571C10.0378 16.0196 11.0455 16.4877 12.1199 16.5785C13.1944 16.6692 14.2663 16.3769 15.1459 15.7532L16.2126 16.8199C14.9778 17.3477 13.6488 17.6198 12.3059 17.6199C8.5526 17.6199 5.13927 15.5265 3.10594 11.9999C4.08174 10.272 5.48709 8.82533 7.18594 7.79986L8.77927 9.38653Z" fill="#7B7B7C"/>
</svg>
