<svg width="23" height="14" viewBox="0 0 23 14" fill="none" xmlns="http://www.w3.org/2000/svg">
<path d="M22.1604 6.68669C19.9037 2.53335 15.9461 0.0200195 11.5667 0.0200195C7.18722 0.0200195 3.22294 2.53335 0.986328 6.68669L0.798828 7.00002L0.972935 7.32002C3.22963 11.4734 7.18722 13.9867 11.5667 13.9867C15.9461 13.9867 19.9104 11.5067 22.1604 7.32002L22.3345 7.00002L22.1604 6.68669ZM11.5667 12.62C7.7966 12.62 4.33454 10.5267 2.32561 7.00002C4.33454 3.47335 7.7966 1.38002 11.5667 1.38002C15.3368 1.38002 18.7586 3.48002 20.8011 7.00002C18.7586 10.5267 15.3301 12.62 11.5667 12.62Z" fill="#7B7B7C"/>
</svg>
