<svg width="25" height="24" viewBox="0 0 25 24" fill="none" xmlns="http://www.w3.org/2000/svg">
<path d="M23.1604 11.6867C20.9037 7.53335 16.9461 5.02002 12.5667 5.02002C8.18722 5.02002 4.22294 7.53335 1.98633 11.6867L1.79883 12L1.97294 12.32C4.22963 16.4734 8.18722 18.9867 12.5667 18.9867C16.9461 18.9867 20.9104 16.5067 23.1604 12.32L23.3345 12L23.1604 11.6867ZM12.5667 17.62C8.7966 17.62 5.33454 15.5267 3.32561 12C5.33454 8.47335 8.7966 6.38002 12.5667 6.38002C16.3368 6.38002 19.7586 8.48002 21.8011 12C19.7586 15.5267 16.3301 17.62 12.5667 17.62Z" fill="#7B7B7C"/>
<path d="M12.7614 7.44641C11.8534 7.45301 10.9678 7.72733 10.2164 8.23473C9.46492 8.74213 8.88137 9.45985 8.53941 10.2972C8.19745 11.1346 8.11243 12.0541 8.29508 12.9396C8.47772 13.8251 8.91985 14.6368 9.56562 15.2722C10.2114 15.9077 11.0318 16.3384 11.9233 16.5099C12.8148 16.6814 13.7373 16.586 14.5744 16.2359C15.4115 15.8857 16.1256 15.2964 16.6265 14.5425C17.1274 13.7885 17.3926 12.9037 17.3886 11.9997C17.386 11.398 17.2641 10.8028 17.03 10.248C16.7959 9.69329 16.4541 9.19001 16.0242 8.76701C15.5944 8.34402 15.0849 8.00964 14.525 7.78302C13.9651 7.55641 13.3658 7.44202 12.7614 7.44641ZM12.7614 15.2597C12.12 15.2532 11.495 15.0581 10.9646 14.699C10.4343 14.3398 10.0224 13.8327 9.78058 13.2413C9.5388 12.6499 9.47794 12.0005 9.60565 11.3748C9.73336 10.749 10.0439 10.1748 10.4984 9.72422C10.9528 9.27363 11.5309 8.96678 12.1599 8.84219C12.789 8.7176 13.441 8.78084 14.0341 9.02396C14.6271 9.26708 15.1348 9.67924 15.4934 10.2087C15.8519 10.7381 16.0453 11.3612 16.0493 11.9997C16.0511 12.4295 15.9672 12.8553 15.8024 13.2525C15.6377 13.6497 15.3953 14.0104 15.0895 14.3136C14.7836 14.6169 14.4204 14.8566 14.0207 15.0191C13.6211 15.1815 13.193 15.2633 12.7614 15.2597Z" fill="#7B7B7C"/>
</svg>
