<svg width="24" height="24" viewBox="0 0 24 24" fill="none" xmlns="http://www.w3.org/2000/svg">
<path d="M23.25 3.5625H20.7468C20.5012 3.5625 20.2929 3.75627 20.2616 4.01635L19.9329 6.79954C19.8722 7.31867 19.4555 7.70724 18.9625 7.70724H2.2185C1.22562 7.70724 0.523265 8.72892 0.817706 9.72469L2.34665 14.9056C2.5374 15.5563 3.10476 15.9967 3.74744 15.9967H17.8698C19.1621 15.9967 19.163 18.0691 17.8698 18.0691H4.17492" stroke="#1B891B" stroke-width="1.5" stroke-linecap="round" stroke-linejoin="round"/>
<path d="M19.3377 9.77979L18.8486 14.4426" stroke="#1B891B" stroke-width="1.5" stroke-linecap="round" stroke-linejoin="round"/>
<path fill-rule="evenodd" clip-rule="evenodd" d="M7.47656 21.8438C7.47656 22.62 6.84656 23.25 6.07031 23.25C5.29406 23.25 4.66406 22.62 4.66406 21.8438C4.66406 21.0675 5.29406 20.4375 6.07031 20.4375C6.84656 20.4375 7.47656 21.0675 7.47656 21.8438Z" stroke="#1B891B" stroke-width="1.5" stroke-linejoin="round"/>
<path fill-rule="evenodd" clip-rule="evenodd" d="M18.2373 21.8438C18.2373 22.62 17.6073 23.25 16.8311 23.25C16.0548 23.25 15.4248 22.62 15.4248 21.8438C15.4248 21.0675 16.0548 20.4375 16.8311 20.4375C17.6073 20.4375 18.2373 21.0675 18.2373 21.8438Z" stroke="#1B891B" stroke-width="1.5" stroke-linejoin="round"/>
<path d="M11.0215 7.11546L14.9345 3.30908L18.9239 7.11546" stroke="#1B891B" stroke-width="1.5" stroke-linecap="round" stroke-linejoin="round"/>
<path d="M6.13044 7.11521L3.19565 0.75L0.75 1.88145L3.19565 7.11521" stroke="#1B891B" stroke-width="1.5" stroke-linecap="round" stroke-linejoin="round"/>
<path d="M9.55469 7.11504V4.26025H13.9569" stroke="#1B891B" stroke-width="1.5" stroke-linecap="round" stroke-linejoin="round"/>
</svg>
