<svg width="34" height="32" viewBox="0 0 34 32" fill="none" xmlns="http://www.w3.org/2000/svg">
<path fill-rule="evenodd" clip-rule="evenodd" d="M27.4757 21.042C28.56 21.042 29.4399 21.9681 29.4399 23.1093C29.4399 24.2517 28.56 25.1765 27.4757 25.1765H26.1663C27.2505 25.1765 28.1305 26.1026 28.1305 27.2437C28.1305 28.3862 27.2505 28.6219 26.1663 28.6219H17.6548C13.9215 28.6219 13.0716 27.9328 8.48853 27.2437V15.5294C11.6967 15.5294 17 9.32776 17 3.81517C17 1.63631 19.8651 0.824584 20.9284 4.80606C21.5832 7.26054 19.619 12.0841 19.619 12.0841H30.0947C31.1789 12.0841 32.0589 13.0102 32.0589 14.1513C32.0589 15.2938 31.1789 16.9076 30.0947 16.9076H28.7852C29.8694 16.9076 30.7494 17.8337 30.7494 18.9748C30.7494 20.1173 29.8694 21.042 28.7852 21.042H27.4757Z" stroke="#242426" stroke-width="2" stroke-linecap="round" stroke-linejoin="round"/>
<path fill-rule="evenodd" clip-rule="evenodd" d="M1.94116 30.0001H8.48848V13.4624H1.94116V30.0001Z" stroke="#242426" stroke-width="2" stroke-linecap="round" stroke-linejoin="round"/>
<path fill-rule="evenodd" clip-rule="evenodd" d="M5.86982 26.5547C5.50841 26.5547 5.21509 26.8634 5.21509 27.2437C5.21509 27.6241 5.50841 27.9328 5.86982 27.9328C6.23123 27.9328 6.52455 27.6241 6.52455 27.2437C6.52455 26.8634 6.23123 26.5547 5.86982 26.5547Z" fill="#242426"/>
</svg>
