<svg width="16" height="16" viewBox="0 0 16 16" fill="none" xmlns="http://www.w3.org/2000/svg">
<path fill-rule="evenodd" clip-rule="evenodd" d="M12.4276 9.57808L15.7587 6.97741C15.9759 6.78775 16.056 6.53276 15.9598 6.27967C15.8636 6.02595 15.6107 5.83629 15.3275 5.83629H11.4516C11.1967 5.83629 10.9632 5.70879 10.8496 5.5185L7.94096 0L5.00881 5.5185C4.89446 5.70879 4.66172 5.83629 4.40745 5.83629H0.754881C0.440074 5.83629 0.154192 6.02595 0.0432019 6.3431C-0.0617338 6.59746 0.0290759 6.91398 0.265854 7.10427L3.42872 9.57808C3.4294 9.57808 3.4294 9.57808 3.4294 9.57808L3.7812 9.83181L2.87041 12.4325L1.9085 15.1606C1.81769 15.4137 1.91119 15.7309 2.14192 15.8578C2.26165 15.9218 2.40425 15.9846 2.54686 15.9846C2.68005 15.9846 2.81324 15.9846 2.92759 15.8578L7.92818 12.6228L12.9288 15.8578C13.1669 16.0474 13.483 16.0474 13.7144 15.8578C13.9452 15.7309 14.0387 15.4137 13.9479 15.1606L12.468 10.9736L12.0745 9.83181L12.427 9.57808C12.427 9.57808 12.427 9.57808 12.4276 9.57808Z" fill="#FFC830"/>
</svg>
