<svg width="104" height="38" viewBox="0 0 104 38" fill="none" xmlns="http://www.w3.org/2000/svg">
<path fill-rule="evenodd" clip-rule="evenodd" d="M8.44613 4.71266C12.4181 3.98872 16.833 3.8535 21.1362 3.57082C44.9903 2.00324 71.9767 1.00064 95.8694 0.00886743C100.824 -0.0530888 105.011 -0.0574608 103.784 9.72099L101.011 31.8262C99.8702 39.1976 98.4646 37.5887 92.9986 37.8738C87.9481 38.1372 81.6989 37.9125 78.8295 37.8751C61.3274 37.9832 40.5758 37.7105 23.0738 37.8183C20.8681 37.8318 15.291 37.793 10.8754 37.8922C2.68461 38.076 3.10753 35.3992 1.96506 27.4181L0.311844 15.87C-0.805261 8.06582 0.89323 6.08929 8.44613 4.71266Z" fill="#1B891B"/>
</svg>
