<svg width="46" height="42" viewBox="0 0 46 42" fill="none" xmlns="http://www.w3.org/2000/svg">
<path fill-rule="evenodd" clip-rule="evenodd" d="M20.1304 10.5238C20.1304 15.7848 15.8471 20.0476 10.5652 20.0476C5.28139 20.0476 1 15.7848 1 10.5238C1 5.26286 5.28139 1 10.5652 1C15.8471 1 20.1304 5.26286 20.1304 10.5238Z" stroke="#242426" stroke-width="2" stroke-linejoin="round"/>
<path d="M14.3915 12.4284H10.5654V5.76172" stroke="#242426" stroke-width="2" stroke-linecap="round" stroke-linejoin="round"/>
<path d="M31.6084 23.8569H40.2171L44.9997 31.476V37.1903H40.0507" stroke="#242426" stroke-width="2" stroke-linecap="round" stroke-linejoin="round"/>
<path d="M20.9209 37.1907H31.6301L31.6091 18.1431H22.0439" stroke="#242426" stroke-width="2" stroke-linecap="round" stroke-linejoin="round"/>
<path d="M10.5654 23.8569V37.1903H15.5145" stroke="#242426" stroke-width="2" stroke-linecap="round" stroke-linejoin="round"/>
<path fill-rule="evenodd" clip-rule="evenodd" d="M40.2176 38.1428C40.2176 39.7199 38.934 40.9999 37.3481 40.9999C35.7641 40.9999 34.4785 39.7199 34.4785 38.1428C34.4785 36.5637 35.7641 35.2856 37.3481 35.2856C38.934 35.2856 40.2176 36.5637 40.2176 38.1428Z" stroke="#242426" stroke-width="2" stroke-linecap="round" stroke-linejoin="round"/>
<path fill-rule="evenodd" clip-rule="evenodd" d="M21.0868 38.1428C21.0868 39.7199 19.8031 40.9999 18.2172 40.9999C16.6332 40.9999 15.3477 39.7199 15.3477 38.1428C15.3477 36.5637 16.6332 35.2856 18.2172 35.2856C19.8031 35.2856 21.0868 36.5637 21.0868 38.1428Z" stroke="#242426" stroke-width="2" stroke-linecap="round" stroke-linejoin="round"/>
<path d="M1 27.6665L6.73913 27.676" stroke="#242426" stroke-width="2" stroke-linecap="round" stroke-linejoin="round"/>
<path d="M3.86914 31.4761L6.73871 31.4856" stroke="#242426" stroke-width="2" stroke-linecap="round" stroke-linejoin="round"/>
<path d="M5.78223 35.2856L6.73875 35.2951" stroke="#242426" stroke-width="2" stroke-linecap="round" stroke-linejoin="round"/>
<path d="M44.9997 31.4761H31.6084" stroke="#242426" stroke-width="2" stroke-linecap="round" stroke-linejoin="round"/>
<path d="M31.6289 37.1904H34.6553" stroke="#242426" stroke-width="2" stroke-linecap="round" stroke-linejoin="round"/>
</svg>
