<svg width="46" height="38" viewBox="0 0 46 38" fill="none" xmlns="http://www.w3.org/2000/svg">
<path d="M28.4031 34H4.91473C2.7538 34 1 32.21 1 30V10C1 7.792 2.7538 6 4.91473 6H26.4457" stroke="#242426" stroke-width="2" stroke-linecap="round" stroke-linejoin="round"/>
<path d="M1 14H26.4457" stroke="#242426" stroke-width="2" stroke-linecap="round" stroke-linejoin="round"/>
<path d="M22.531 20H6.87207" stroke="#242426" stroke-width="2" stroke-linecap="round" stroke-linejoin="round"/>
<path d="M12.7442 24H6.87207" stroke="#242426" stroke-width="2" stroke-linecap="round" stroke-linejoin="round"/>
<path d="M31.4023 26.007C31.4023 29.847 34.446 32.957 38.2022 32.957C41.9584 32.957 45.0002 29.847 45.0002 26.007C45.0002 22.173 41.9584 19.063 38.2022 19.063C34.446 19.063 31.4023 15.953 31.4023 12.113C31.4023 8.27699 34.446 5.16699 38.2022 5.16699C41.9584 5.16699 45.0002 8.27699 45.0002 12.113" stroke="#242426" stroke-width="2" stroke-linecap="round" stroke-linejoin="round"/>
<path d="M38.2012 1L38.1895 37" stroke="#242426" stroke-width="2" stroke-linecap="round" stroke-linejoin="round"/>
</svg>
