<svg width="46" height="42" viewBox="0 0 46 42" fill="none" xmlns="http://www.w3.org/2000/svg">
<path d="M14.3913 41H4.82609C2.71409 41 1 39.4417 1 37.5217V4.47826C1 2.55826 2.71409 1 4.82609 1H23.9565C26.0685 1 27.7826 2.55826 27.7826 4.47826V20.1304" stroke="#242426" stroke-width="2" stroke-linecap="round" stroke-linejoin="round"/>
<path d="M27.7826 7.95654H1" stroke="#242426" stroke-width="2" stroke-linecap="round" stroke-linejoin="round"/>
<path d="M14.3913 34.0435H1" stroke="#242426" stroke-width="2" stroke-linecap="round" stroke-linejoin="round"/>
<path d="M10.5654 4.47852H18.2176" stroke="#242426" stroke-width="2" stroke-linecap="round" stroke-linejoin="round"/>
<path d="M14.3911 38.3915C13.8631 38.3915 13.4346 38.0019 13.4346 37.5219C13.4346 37.0419 13.8631 36.6523 14.3911 36.6523" stroke="#242426" stroke-width="2" stroke-linecap="round" stroke-linejoin="round"/>
<path d="M18.2178 28.8262H45.0004" stroke="#242426" stroke-width="2" stroke-linecap="round" stroke-linejoin="round"/>
<path d="M29.6951 32.3042H22.043" stroke="#242426" stroke-width="2" stroke-linecap="round" stroke-linejoin="round"/>
<path d="M41.1737 32.3042H37.3477" stroke="#242426" stroke-width="2" stroke-linecap="round" stroke-linejoin="round"/>
<path d="M25.8691 35.7827H22.043" stroke="#242426" stroke-width="2" stroke-linecap="round" stroke-linejoin="round"/>
<path fill-rule="evenodd" clip-rule="evenodd" d="M45.0004 37.5219C45.0004 39.4419 43.2863 41.0002 41.1743 41.0002H22.0439C19.9319 41.0002 18.2178 39.4419 18.2178 37.5219V27.0871C18.2178 25.1671 19.9319 23.6089 22.0439 23.6089H41.1743C43.2863 23.6089 45.0004 25.1671 45.0004 27.0871V37.5219Z" stroke="#242426" stroke-width="2" stroke-linecap="round" stroke-linejoin="round"/>
<path d="M11.7305 22.0462C11.7305 23.3819 12.9223 24.4654 14.3915 24.4654C15.8588 24.4654 17.0506 23.3819 17.0506 22.0462C17.0506 20.7106 15.8588 19.6236 14.3915 19.6236C12.9223 19.6236 11.7305 18.5436 11.7305 17.2062C11.7305 15.8706 12.9223 14.7871 14.3915 14.7871C15.8588 14.7871 17.0506 15.8706 17.0506 17.2062" stroke="#242426" stroke-width="2" stroke-linecap="round" stroke-linejoin="round"/>
<path d="M14.3916 24.4648V26.0753" stroke="#242426" stroke-width="2" stroke-linecap="round" stroke-linejoin="round"/>
<path d="M14.3916 13.1738V14.7877" stroke="#242426" stroke-width="2" stroke-linecap="round" stroke-linejoin="round"/>
</svg>
