<svg width="42" height="30" viewBox="0 0 42 30" fill="none" xmlns="http://www.w3.org/2000/svg">
<path fill-rule="evenodd" clip-rule="evenodd" d="M41 20.6C38.1183 20.6 35.7826 18.0931 35.7826 15C35.7826 11.9088 38.1183 9.4 41 9.4V1H1V9.4C3.88 9.4 6.21739 11.9088 6.21739 15C6.21739 18.0931 3.88 20.6 1 20.6V29H41V20.6Z" stroke="#242426" stroke-width="2" stroke-linecap="round" stroke-linejoin="round"/>
<path fill-rule="evenodd" clip-rule="evenodd" d="M31.4346 5.66647H33.1737V3.7998H31.4346V5.66647Z" fill="#242426"/>
<path fill-rule="evenodd" clip-rule="evenodd" d="M31.4346 9.39987H33.1737V7.5332H31.4346V9.39987Z" fill="#242426"/>
<path fill-rule="evenodd" clip-rule="evenodd" d="M31.4346 13.1333H33.1737V11.2666H31.4346V13.1333Z" fill="#242426"/>
<path fill-rule="evenodd" clip-rule="evenodd" d="M31.4346 18.7334H33.1737V16.8667H31.4346V18.7334Z" fill="#242426"/>
<path fill-rule="evenodd" clip-rule="evenodd" d="M31.4346 22.4668H33.1737V20.6001H31.4346V22.4668Z" fill="#242426"/>
<path fill-rule="evenodd" clip-rule="evenodd" d="M31.4346 26.2002H33.1737V24.3335H31.4346V26.2002Z" fill="#242426"/>
<path d="M12.3047 22.4665L26.2177 7.5332" stroke="#242426" stroke-width="2" stroke-linecap="round" stroke-linejoin="round"/>
<path fill-rule="evenodd" clip-rule="evenodd" d="M16.652 9.4001C16.652 10.9476 15.4833 12.2001 14.0433 12.2001C12.6033 12.2001 11.4346 10.9476 11.4346 9.4001C11.4346 7.8545 12.6033 6.6001 14.0433 6.6001C15.4833 6.6001 16.652 7.8545 16.652 9.4001Z" stroke="#242426" stroke-width="2" stroke-linecap="round" stroke-linejoin="round"/>
<path fill-rule="evenodd" clip-rule="evenodd" d="M27.0865 20.5998C27.0865 22.1473 25.9178 23.3998 24.4778 23.3998C23.0378 23.3998 21.8691 22.1473 21.8691 20.5998C21.8691 19.0542 23.0378 17.7998 24.4778 17.7998C25.9178 17.7998 27.0865 19.0542 27.0865 20.5998Z" stroke="#242426" stroke-width="2" stroke-linecap="round" stroke-linejoin="round"/>
</svg>
