<svg width="108" height="48" viewBox="0 0 108 48" fill="none" xmlns="http://www.w3.org/2000/svg">
<path d="M13.347 28.6287C12.8483 28.3115 12.3115 28.059 11.7492 27.8775C11.1863 27.6978 10.5988 27.6075 10.008 27.6096C9.64127 27.6063 9.27553 27.648 8.91892 27.7338C8.61787 27.804 8.3311 27.9255 8.07112 28.0931C7.8487 28.2368 7.66145 28.4288 7.52332 28.6548C7.3916 28.8782 7.32391 29.1336 7.32767 29.393C7.31807 29.6228 7.37711 29.8503 7.49723 30.0462C7.62206 30.2318 7.78988 30.3842 7.98634 30.4905C8.23066 30.6245 8.49161 30.7256 8.76241 30.791C9.10418 30.8769 9.45032 30.9446 9.79931 30.9935L10.621 31.1045C11.0982 31.1714 11.5692 31.2762 12.0297 31.4181C12.4673 31.5497 12.8812 31.7504 13.2557 32.0126C13.6125 32.2641 13.9088 32.5922 14.1231 32.9729C14.3516 33.4047 14.464 33.8888 14.4491 34.3773C14.4605 34.9371 14.328 35.4905 14.0644 35.9843C13.8107 36.4488 13.4564 36.8507 13.0274 37.1601C12.5677 37.4898 12.0532 37.7354 11.5079 37.8852C10.9117 38.0532 10.2948 38.1368 9.67541 38.1335C9.25595 38.1314 8.8373 38.0964 8.42329 38.0289C7.98151 37.9622 7.54547 37.8617 7.11899 37.7285C6.71458 37.5933 6.32195 37.4252 5.94512 37.2254C5.57276 37.0349 5.22463 36.8003 4.9082 36.5265L5.94512 34.9913C6.16933 35.1941 6.41668 35.3694 6.68204 35.5139C7.29271 35.8488 7.95337 36.0827 8.63849 36.2064C8.98477 36.2711 9.33622 36.3038 9.68845 36.3044C10.0524 36.309 10.4156 36.2718 10.771 36.1934C11.081 36.1256 11.3782 36.0087 11.6514 35.8472C11.8876 35.708 12.0902 35.5184 12.2449 35.2919C12.3938 35.07 12.4711 34.8078 12.4666 34.5407C12.4758 34.0884 12.221 33.6725 11.8145 33.4758C11.1729 33.1766 10.4845 32.991 9.77975 32.9271L8.8537 32.7965C8.41039 32.7348 7.97374 32.6321 7.5494 32.4894C7.14188 32.355 6.7603 32.1518 6.42119 31.8884C6.08572 31.6269 5.81186 31.2945 5.61905 30.915C5.39885 30.4778 5.28701 29.9939 5.29297 29.5041C5.28316 28.9523 5.41093 28.4066 5.6647 27.9167C5.9093 27.4556 6.25486 27.0558 6.67553 26.7474C7.12616 26.4198 7.63205 26.1765 8.16895 26.0288C8.76283 25.8599 9.37763 25.7763 9.99496 25.7805C10.7931 25.7702 11.5878 25.887 12.3492 26.1269C13.0405 26.3513 13.6985 26.6676 14.3057 27.0675L13.347 28.6287ZM19.8358 29.5433C20.3715 29.5383 20.9023 29.6451 21.3945 29.8568C21.8572 30.0575 22.2711 30.356 22.6075 30.7322C22.9548 31.128 23.2227 31.587 23.3967 32.0844C23.5932 32.6445 23.6902 33.2349 23.6836 33.8286V34.1682V34.4949H17.6316C17.6752 34.8276 17.7814 35.1491 17.9446 35.442C18.0855 35.6937 18.2737 35.9156 18.499 36.0953C18.7147 36.2639 18.9604 36.3902 19.2229 36.4677C19.494 36.5475 19.7751 36.5871 20.0577 36.5853C20.4766 36.582 20.8917 36.5046 21.2836 36.3566C21.6931 36.2025 22.0743 35.9819 22.4119 35.7033L23.2923 36.9773C22.8316 37.3821 22.2919 37.6869 21.7075 37.8722C21.1344 38.0447 20.5387 38.1305 19.9402 38.1269C19.365 38.1332 18.7938 38.0289 18.2577 37.82C17.7678 37.6236 17.3236 37.3278 16.9534 36.951C16.5765 36.5646 16.2834 36.1043 16.0926 35.5989C15.882 35.0351 15.778 34.437 15.7861 33.8351C15.7798 33.2403 15.8814 32.6493 16.086 32.0909C16.2702 31.5864 16.5541 31.1243 16.9207 30.7322C17.2882 30.3506 17.733 30.0521 18.2251 29.8568C18.736 29.646 19.2832 29.5373 19.8358 29.5367V29.5433ZM19.8033 31.1307C19.5142 31.1252 19.2267 31.1739 18.9555 31.2744C18.7116 31.3638 18.4893 31.5041 18.3033 31.6859C18.1194 31.8753 17.9713 32.0967 17.8665 32.3391C17.7486 32.5965 17.6674 32.8692 17.6251 33.1491H21.8511C21.8005 32.597 21.5716 32.0763 21.1989 31.6664C20.8263 31.2993 20.3188 31.1031 19.7968 31.1241L19.8033 31.1307ZM29.253 29.5433C29.8384 29.5377 30.4192 29.6487 30.9615 29.87C31.4677 30.0854 31.9149 30.4191 32.2659 30.8432L31.1245 32.0583C30.8622 31.7928 30.5581 31.5722 30.2247 31.4051C29.8926 31.2564 29.5318 31.1828 29.1681 31.1895C28.8411 31.1861 28.5169 31.2506 28.216 31.379C27.9291 31.5138 27.6736 31.7075 27.466 31.9472C27.244 32.1854 27.0712 32.4651 26.9574 32.7704C26.713 33.4568 26.713 34.2068 26.9574 34.8933C27.0705 35.201 27.2433 35.4828 27.466 35.723C27.6808 35.9523 27.9405 36.1347 28.2291 36.2586C28.53 36.387 28.8541 36.4515 29.1811 36.4481C29.5653 36.4488 29.9445 36.3617 30.2898 36.1934C30.6195 36.0389 30.9231 35.834 31.1898 35.5859L32.292 36.8466C31.9258 37.2713 31.4658 37.6046 30.9486 37.82C30.4087 38.0418 29.8299 38.153 29.2464 38.1465C28.6437 38.1552 28.0452 38.0442 27.4855 37.82C26.4579 37.4082 25.6522 36.5799 25.2682 35.5401C24.8595 34.4403 24.8595 33.23 25.2682 32.1302C25.6524 31.1016 26.4496 30.2816 27.466 29.87C28.0314 29.6409 28.6366 29.5275 29.2464 29.5367L29.253 29.5433ZM41.4154 34.4556C41.4306 35.0303 41.3193 35.6013 41.0895 36.128C40.8942 36.5669 40.6047 36.9572 40.2417 37.2711C39.8878 37.5686 39.4773 37.7907 39.0351 37.9244C38.1256 38.2034 37.1535 38.2034 36.2439 37.9244C35.7999 37.7906 35.3874 37.5684 35.031 37.2711C34.6656 36.9593 34.3756 36.5684 34.1832 36.128C33.9576 35.6001 33.8485 35.0297 33.8637 34.4556V29.7524H35.6505V34.325C35.6415 34.6644 35.6922 35.0028 35.8005 35.3246C35.8908 35.5715 36.0357 35.7948 36.2244 35.9778C36.4093 36.1518 36.6328 36.2793 36.8766 36.3501C37.387 36.5034 37.9312 36.5034 38.4417 36.3501C38.6854 36.2793 38.9089 36.1518 39.0939 35.9778C39.2826 35.7948 39.4275 35.5715 39.5178 35.3246C39.6283 35.0033 39.6813 34.6649 39.6742 34.325V29.7524H41.4612L41.4154 34.4556ZM47.9044 29.5433C48.1512 29.5422 48.3978 29.5619 48.6412 29.6021C48.8643 29.6378 49.0828 29.6969 49.2934 29.7785L48.8695 31.5422C48.6633 31.4387 48.4438 31.364 48.2173 31.3202C47.988 31.2705 47.7543 31.2441 47.5195 31.2417C47.2519 31.2384 46.9861 31.2872 46.737 31.3854C46.5031 31.4784 46.2934 31.6236 46.1239 31.8101C45.9462 32.0117 45.8109 32.2472 45.7261 32.5025C45.6261 32.8013 45.5775 33.1149 45.5827 33.4301V37.9179H43.7697V29.7524H45.5305V30.6734C45.7816 30.2981 46.1314 29.9997 46.5414 29.8112C46.9687 29.6235 47.4313 29.5299 47.8978 29.5367L47.9044 29.5433ZM53.8716 29.5433C54.4072 29.5383 54.9379 29.6451 55.4302 29.8568C55.8928 30.0575 56.3067 30.356 56.6431 30.7322C57.0019 31.1253 57.2811 31.5846 57.4648 32.0844C57.6612 32.6447 57.7584 33.2349 57.7518 33.8286V34.1682V34.4949H51.6607C51.7044 34.8276 51.8106 35.1491 51.9738 35.442C52.1146 35.6937 52.3029 35.9156 52.528 36.0953C52.7439 36.2639 52.9894 36.3902 53.2519 36.4677C53.523 36.5475 53.8042 36.5871 54.0867 36.5853C54.5056 36.582 54.9207 36.5046 55.3128 36.3566C55.7221 36.2025 56.1034 35.9819 56.4409 35.7033L57.3279 36.9707C56.8674 37.3758 56.3277 37.6806 55.7431 37.8656C55.17 38.0381 54.5743 38.124 53.9758 38.1204C53.4006 38.1266 52.8295 38.0223 52.2933 37.8134C51.8034 37.617 51.3592 37.3212 50.989 36.9446C50.6121 36.558 50.319 36.0977 50.1282 35.5923C49.9176 35.0286 49.8136 34.4304 49.8217 33.8286C49.8154 33.2337 49.9171 32.6429 50.1217 32.0844C50.3019 31.5809 50.5813 31.1189 50.9434 30.7257C51.3108 30.344 51.7555 30.0456 52.2477 29.8503C52.7611 29.6409 53.3106 29.5343 53.865 29.5367L53.8716 29.5433ZM53.8389 31.1307C53.5498 31.1252 53.2623 31.1739 52.9911 31.2744C52.7472 31.3638 52.5249 31.5041 52.339 31.6859C52.155 31.8753 52.0069 32.0967 51.9021 32.3391C51.7843 32.5965 51.703 32.8692 51.6607 33.1491H55.8997C55.8492 32.597 55.6203 32.0763 55.2475 31.6664C54.8719 31.2959 54.3589 31.0994 53.8324 31.1241L53.8389 31.1307ZM65.3884 25.7414C65.9041 25.7396 66.4182 25.7966 66.921 25.9112C67.3983 26.0198 67.8603 26.1866 68.2971 26.4077C68.7147 26.6195 69.1027 26.8853 69.4513 27.1982C69.7914 27.5009 70.0837 27.8532 70.3188 28.2434L68.7144 29.3147C68.3565 28.7862 67.8753 28.3535 67.3123 28.0539C66.7095 27.7374 66.0361 27.5801 65.3559 27.5966C64.78 27.5906 64.2085 27.6971 63.6733 27.9102C63.1828 28.1145 62.7391 28.4168 62.3691 28.7985C61.9866 29.192 61.6872 29.6586 61.4886 30.1704C61.0629 31.3076 61.0629 32.5607 61.4886 33.698C61.6872 34.2098 61.9866 34.6763 62.3691 35.0697C62.7391 35.4515 63.1828 35.7537 63.6733 35.9582C64.2085 36.1713 64.78 36.2778 65.3559 36.2717C66.6802 36.3008 67.9294 35.6568 68.6752 34.5602L70.2405 35.7099C69.9859 36.0834 69.6832 36.4217 69.3405 36.716C69.004 37.0214 68.6317 37.2845 68.2318 37.4999C67.8049 37.7144 67.3539 37.8767 66.8884 37.9832C65.5489 38.28 64.1518 38.1755 62.8711 37.6827C61.3771 37.0971 60.195 35.9132 59.6104 34.4165C58.9989 32.8272 58.9989 31.0671 59.6104 29.478C60.195 27.9813 61.3771 26.7972 62.8711 26.2118C63.672 25.8933 64.5268 25.7336 65.3884 25.7414ZM75.888 29.5172C76.4863 29.5103 77.0802 29.6213 77.6358 29.8437C78.1531 30.0506 78.625 30.3567 79.0249 30.7452C79.4188 31.1322 79.7314 31.5942 79.9444 32.1041C80.3868 33.1974 80.3868 34.4205 79.9444 35.5139C79.7314 36.0237 79.4188 36.4857 79.0249 36.8727C78.625 37.2612 78.1531 37.5674 77.6358 37.7742C76.5115 38.2118 75.2646 38.2118 74.1403 37.7742C73.6224 37.5686 73.1502 37.2623 72.7512 36.8727C72.3537 36.4947 72.0345 36.0419 71.8122 35.5401C71.3698 34.4466 71.3698 33.2237 71.8122 32.1302C72.0237 31.6212 72.334 31.1594 72.7251 30.7713C73.1241 30.3818 73.5963 30.0755 74.1142 29.87C74.6794 29.6409 75.2848 29.5275 75.8946 29.5367L75.888 29.5172ZM75.888 31.196C75.5419 31.1924 75.1986 31.2567 74.8773 31.3854C74.574 31.5066 74.2987 31.689 74.0686 31.9211C73.8379 32.1575 73.6561 32.4372 73.5337 32.7441C73.2729 33.4277 73.2729 34.1837 73.5337 34.8672C73.6561 35.1743 73.8379 35.4539 74.0686 35.6903C74.2989 35.9222 74.5741 36.1044 74.8773 36.2259C75.5271 36.4809 76.249 36.4809 76.8988 36.2259C77.5147 35.9841 78.0049 35.5002 78.2553 34.8869C78.5163 34.2033 78.5163 33.4473 78.2553 32.7638C78.132 32.4558 77.9479 32.1758 77.7141 31.9407C77.4811 31.709 77.2038 31.5269 76.8988 31.4051C76.5796 31.2771 76.2384 31.2128 75.8946 31.2156L75.888 31.196ZM85.6246 29.5172C86.6229 29.4785 87.5779 29.9264 88.1875 30.7191V25.6238H89.9679V37.9113H88.1875V36.9315C87.9033 37.2953 87.5427 37.5918 87.1311 37.8003C86.6622 38.0282 86.1456 38.1402 85.6246 38.1269C84.537 38.1374 83.4928 37.7006 82.7356 36.9185C82.3575 36.5216 82.0626 36.053 81.8683 35.5401C81.4491 34.4286 81.4491 33.2024 81.8683 32.0909C82.0651 31.5852 82.3599 31.1234 82.7356 30.7322C83.4928 29.9501 84.537 29.5133 85.6246 29.5236V29.5172ZM85.8399 31.196C85.4853 31.1904 85.1338 31.2617 84.8094 31.4051C84.5167 31.5366 84.2547 31.728 84.0399 31.9668C83.8269 32.2094 83.6629 32.4911 83.5573 32.7965C83.3307 33.4524 83.3307 34.1655 83.5573 34.8215C83.6629 35.1269 83.8269 35.4086 84.0399 35.6511C84.2547 35.8899 84.5167 36.0813 84.8094 36.2129C85.4605 36.4844 86.193 36.4844 86.8441 36.2129C87.138 36.0857 87.4021 35.8989 87.6202 35.6642C87.8326 35.4384 88.0006 35.1747 88.1158 34.8869C88.3542 34.215 88.3542 33.4814 88.1158 32.8095C88.0038 32.5049 87.8332 32.2253 87.6136 31.9865C87.3952 31.7522 87.1311 31.5654 86.8377 31.4376C86.5242 31.2947 86.1843 31.2189 85.8399 31.2156V31.196ZM95.883 29.5172C96.4186 29.5121 96.9495 29.6189 97.4416 29.8307C97.9044 30.0311 98.3182 30.3297 98.6545 30.7061C99.0018 31.1018 99.2698 31.5609 99.4437 32.0583C99.6403 32.6184 99.7374 33.2087 99.7306 33.8024V34.1421V34.4688H93.7113C93.7539 34.8017 93.8602 35.1233 94.0243 35.4159C94.165 35.6678 94.3533 35.8896 94.5786 36.0692C94.7943 36.2379 95.04 36.3642 95.3025 36.4416C95.5735 36.5213 95.8548 36.5609 96.1372 36.5591C96.5562 36.5559 96.9712 36.4785 97.3633 36.3305C97.7727 36.1764 98.1538 35.9556 98.4915 35.6772L99.3784 36.9446C98.9176 37.3494 98.3781 37.6541 97.7937 37.8395C97.2205 38.0121 96.6249 38.0979 96.0264 38.0943C95.4511 38.1005 94.8799 37.9962 94.3438 37.7873C93.8539 37.5909 93.4098 37.2951 93.0396 36.9185C92.6626 36.5319 92.3695 36.0716 92.1787 35.5662C91.9681 35.0024 91.8642 34.4043 91.8723 33.8024C91.866 33.2076 91.9677 32.6166 92.1721 32.0583C92.3565 31.5537 92.6404 31.0917 93.0069 30.6995C93.3744 30.3179 93.8191 30.0194 94.3113 29.8242C94.8123 29.6295 95.3455 29.532 95.883 29.5367V29.5172ZM100.585 37.8918V37.4999H100.748V37.4148H100.324V37.4999H100.507V37.9113L100.585 37.8918ZM101.4 37.8918V37.3953H101.27L101.12 37.7349L100.97 37.3953H100.839V37.8918H100.93V37.5194L101.068 37.8395H101.159L101.296 37.5194V37.8918H101.4ZM95.8503 31.1045C95.5612 31.0989 95.2737 31.1477 95.0025 31.2483C94.7586 31.3377 94.5363 31.478 94.3504 31.6598C94.1664 31.8492 94.0183 32.0706 93.9135 32.313C93.7957 32.5704 93.7146 32.8431 93.6721 33.123H97.8981C97.8517 32.564 97.6225 32.0358 97.2459 31.6206C96.8674 31.272 96.3636 31.0928 95.8503 31.1241V31.1045Z" fill="#F79E1B"/>
<path d="M19.1945 21.0837H17.1989V10.9061L13.5925 19.8621H11.4926L7.89923 11.0041V21.0837H5.89062V8.71775H8.9492L12.5425 17.5561L16.1294 8.71775H19.1879L19.1945 21.0837ZM29.6941 21.0837H27.8485V20.0712C27.5537 20.4485 27.1796 20.7563 26.7529 20.9727C26.2673 21.2066 25.7329 21.3209 25.1942 21.3059C24.0649 21.3179 22.9801 20.8642 22.1944 20.0515C21.8044 19.6453 21.4985 19.1658 21.2944 18.6405C20.8592 17.4872 20.8592 16.2142 21.2944 15.0607C21.4987 14.5356 21.8045 14.0561 22.1944 13.6497C22.9801 12.837 24.0649 12.3835 25.1942 12.3955C25.7335 12.3812 26.2682 12.4978 26.7529 12.7352C27.1795 12.9547 27.5533 13.2645 27.8485 13.6432V12.6241H29.6941V21.0837ZM25.4095 14.1397C25.0415 14.1334 24.6767 14.207 24.34 14.3553C24.0373 14.4917 23.7664 14.6897 23.5444 14.9366C23.3231 15.189 23.1527 15.4818 23.0422 15.7989C22.8067 16.4802 22.8067 17.2211 23.0422 17.9024C23.1538 18.2204 23.3266 18.5133 23.5508 18.7647C23.7727 19.0119 24.0437 19.2099 24.3464 19.3461C25.0225 19.6291 25.7834 19.6291 26.4594 19.3461C26.7629 19.2136 27.0359 19.0203 27.2615 18.7778C27.4889 18.5289 27.6661 18.2383 27.7832 17.922C28.03 17.2247 28.03 16.4636 27.7832 15.7662C27.6661 15.45 27.4889 15.1593 27.2615 14.9105C27.0356 14.6682 26.7626 14.4748 26.4594 14.3422C26.1278 14.2007 25.7698 14.1317 25.4095 14.1397ZM38.1524 14.7407C37.9981 14.6518 37.8392 14.5712 37.6763 14.499C37.4642 14.4066 37.2464 14.328 37.0243 14.2638C36.7843 14.1912 36.5404 14.1323 36.2938 14.0874C36.0356 14.0397 35.7737 14.0157 35.5112 14.0156C35.0989 13.992 34.6886 14.0896 34.3309 14.2965C34.0712 14.4481 33.9121 14.727 33.9134 15.028C33.9088 15.1609 33.9476 15.2919 34.0243 15.4005C34.102 15.5046 34.2023 15.5895 34.3178 15.6487C34.4581 15.7201 34.6072 15.7728 34.7612 15.8055C34.9309 15.8446 35.1134 15.8794 35.309 15.91L36.1829 16.0407C36.9598 16.1213 37.703 16.4001 38.3416 16.8507C38.8777 17.2492 39.1828 17.8874 39.1567 18.5556C39.1606 18.9435 39.071 19.3267 38.8958 19.6726C38.7127 20.0067 38.4563 20.2948 38.146 20.5154C37.7818 20.7771 37.3729 20.9697 36.9394 21.0837C36.4078 21.2256 35.8592 21.2938 35.309 21.2862C35.0917 21.2862 34.8395 21.2731 34.5526 21.247C34.2427 21.2175 33.9353 21.1651 33.6331 21.0901C33.2944 21.0052 32.963 20.894 32.6417 20.757C32.3009 20.6117 31.979 20.4252 31.6831 20.2019L32.5375 18.8169C32.695 18.939 32.8606 19.0503 33.0331 19.15C33.2264 19.26 33.4294 19.352 33.6395 19.4244C33.8839 19.5084 34.1347 19.5718 34.3895 19.6138C34.6978 19.6641 35.0098 19.6881 35.3221 19.6857C35.8163 19.7138 36.3095 19.6171 36.7568 19.4049C37.0504 19.2693 37.2406 18.9774 37.246 18.6536C37.2415 18.4071 37.1077 18.1812 36.8938 18.0591C36.5522 17.8689 36.1745 17.7531 35.7851 17.7195L34.9048 17.6019C34.1276 17.5387 33.3851 17.253 32.7656 16.7788C32.2798 16.3677 32.0083 15.7565 32.0287 15.1196C32.0234 14.7267 32.1082 14.3378 32.2766 13.9829C32.438 13.6462 32.6773 13.3528 32.9744 13.1271C33.3037 12.8828 33.6751 12.7012 34.07 12.5915C34.5433 12.4592 35.033 12.3954 35.5243 12.402C36.1579 12.3984 36.7892 12.4775 37.4024 12.6372C37.9484 12.773 38.47 12.9934 38.948 13.2905L38.1524 14.7407ZM46.9043 14.2965H43.6435V17.9808C43.643 18.2299 43.685 18.4773 43.7674 18.7124C43.8274 18.8942 43.9252 19.0613 44.0543 19.2024C44.1716 19.3281 44.3168 19.4244 44.4782 19.4832C44.6476 19.5447 44.8264 19.5756 45.0065 19.5747C45.3079 19.5723 45.6062 19.5147 45.8869 19.4049C46.1737 19.2978 46.4489 19.1621 46.7086 18.9999L47.4391 20.4762C47.0798 20.7168 46.6948 20.9162 46.2913 21.0707C45.8303 21.2418 45.3416 21.3261 44.8499 21.3189C44.0282 21.3667 43.2227 21.0765 42.6196 20.5154C42.0266 19.8259 41.7353 18.9267 41.8109 18.0199V14.303H40.135V12.6241H41.8109V10.0634H43.6631V12.6241H46.9238L46.9043 14.2965ZM52.5779 12.3955C53.1334 12.3885 53.6842 12.4975 54.1952 12.7156C54.6755 12.9234 55.1049 13.2332 55.4539 13.6236C55.8152 14.0346 56.0942 14.5114 56.2756 15.028C56.4781 15.6094 56.5774 16.2219 56.5691 16.8376V17.1903V17.5234H50.2889C50.3347 17.8678 50.4454 18.2004 50.615 18.5034C50.7632 18.7555 50.958 18.9773 51.1889 19.1567C51.4126 19.3308 51.667 19.4616 51.9388 19.542C52.2203 19.6257 52.5125 19.6676 52.8062 19.6662C53.2516 19.6672 53.6935 19.5876 54.1105 19.431C54.5326 19.2786 54.9269 19.0578 55.2778 18.7778L56.1974 20.0842C55.7194 20.5036 55.1599 20.8196 54.554 21.0119C53.9597 21.1919 53.3422 21.282 52.7215 21.2796C52.1149 21.3008 51.5102 21.2031 50.9411 20.9922C50.4268 20.7907 49.9603 20.4837 49.5714 20.0907C49.1803 19.6893 48.8761 19.2111 48.6781 18.6863C48.4592 18.1017 48.3508 17.4815 48.3586 16.8572C48.3508 16.2405 48.4547 15.6275 48.665 15.0477C48.8564 14.5237 49.1515 14.0438 49.5325 13.6367C49.8992 13.2463 50.3435 12.937 50.8367 12.7287C51.3889 12.5024 51.9814 12.3912 52.5779 12.402V12.3955ZM52.5454 14.0417C52.2451 14.0362 51.9464 14.0871 51.6649 14.1919C51.4201 14.289 51.1981 14.4358 51.0128 14.6231C50.8232 14.8121 50.6687 15.0333 50.5562 15.2763C50.4269 15.5474 50.3369 15.8355 50.2889 16.132H54.6713C54.6128 15.5563 54.365 15.0164 53.9671 14.597C53.5877 14.2268 53.0747 14.0264 52.5454 14.0417ZM62.9797 12.3955C63.2353 12.3939 63.4904 12.4136 63.7427 12.4543C63.9658 12.4932 64.1842 12.5544 64.3949 12.6372L63.9514 14.4663C63.7451 14.3615 63.5258 14.2846 63.2993 14.2377C63.0611 14.1875 62.8187 14.1612 62.5754 14.1593C62.2987 14.1567 62.024 14.2077 61.7668 14.3095C61.5178 14.4048 61.2946 14.5569 61.1146 14.7537C60.9286 14.9626 60.7865 15.207 60.6971 15.4724C60.5932 15.7815 60.5425 16.1063 60.5473 16.4326V21.0901H58.7017V12.598H60.5276V13.5518C60.7861 13.1723 61.142 12.8698 61.558 12.6764C62.0005 12.4857 62.4785 12.3921 62.9602 12.402L62.9797 12.3955ZM69.286 12.3955C69.8939 12.3893 70.4971 12.5048 71.0599 12.7352C71.596 12.9552 72.0704 13.3028 72.4424 13.7477L71.2621 15.0086C70.9883 14.7418 70.6735 14.5212 70.3294 14.3553C69.985 14.2005 69.6112 14.1225 69.2338 14.1266C68.8957 14.1234 68.5604 14.1901 68.249 14.3226C67.9481 14.4502 67.6772 14.6393 67.4534 14.8779C67.2251 15.126 67.0478 15.4169 66.9317 15.7337C66.6775 16.4453 66.6775 17.2233 66.9317 17.9351C67.048 18.2519 67.2253 18.5426 67.4534 18.7908C67.6774 19.0292 67.9483 19.2183 68.249 19.3461C68.5604 19.4785 68.8957 19.5453 69.2338 19.542C69.6259 19.5457 70.0138 19.4609 70.3685 19.2938C70.7116 19.1262 71.0263 18.9057 71.3011 18.6405L72.4358 19.9145C72.0562 20.3565 71.5781 20.7033 71.0402 20.9269C70.4798 21.1575 69.8788 21.273 69.2729 21.2666C68.6479 21.2754 68.0272 21.1599 67.447 20.9269C66.3853 20.503 65.5501 19.6523 65.1448 18.5817C64.721 17.442 64.721 16.1874 65.1448 15.0477C65.5501 13.9773 66.3853 13.1264 67.447 12.7025C68.0279 12.4837 68.6461 12.3816 69.2665 12.402L69.286 12.3955ZM82.2442 21.0837H80.3986V20.0712C80.1038 20.4485 79.7297 20.7563 79.303 20.9727C78.8174 21.2066 78.283 21.3209 77.7443 21.3059C76.615 21.3179 75.5302 20.8642 74.7445 20.0515C74.3545 19.6453 74.0486 19.1658 73.8445 18.6405C73.4093 17.4872 73.4093 16.2142 73.8445 15.0607C74.0488 14.5356 74.3546 14.0561 74.7445 13.6497C75.5302 12.837 76.615 12.3835 77.7443 12.3955C78.2836 12.3812 78.8183 12.4978 79.303 12.7352C79.7296 12.9547 80.1035 13.2645 80.3986 13.6432V12.6241H82.2442V21.0837ZM77.966 14.1397C77.5982 14.1334 77.2334 14.207 76.8965 14.3553C76.594 14.4917 76.3231 14.6897 76.1009 14.9366C75.8798 15.189 75.7093 15.4818 75.5987 15.7989C75.3632 16.4802 75.3632 17.2211 75.5987 17.9024C75.7093 18.2194 75.8798 18.5122 76.1009 18.7647C76.3229 19.0118 76.5938 19.2098 76.8965 19.3461C77.5727 19.6284 78.3334 19.6284 79.0096 19.3461C79.3129 19.2135 79.5859 19.0202 79.8116 18.7778C80.0399 18.5295 80.2172 18.2388 80.3333 17.922C80.5811 17.2248 80.5811 16.4634 80.3333 15.7662C80.2172 15.4496 80.0399 15.1587 79.8116 14.9105C79.5857 14.6682 79.3129 14.4748 79.0096 14.3422C78.6818 14.2027 78.3286 14.1338 77.9726 14.1397H77.966ZM89.2417 12.402C89.4973 12.4004 89.7524 12.4201 90.0047 12.4608C90.2278 12.4997 90.4462 12.561 90.6569 12.6438L90.2134 14.4728C90.0071 14.368 89.7878 14.2911 89.5613 14.2442C89.3231 14.1941 89.0807 14.1678 88.8374 14.1658C88.5607 14.163 88.286 14.214 88.0288 14.3161C87.7799 14.4114 87.5566 14.5635 87.3766 14.7603C87.1906 14.9692 87.0485 15.2136 86.9593 15.4788C86.8552 15.7881 86.8045 16.1129 86.8093 16.4391V21.0968H84.9637V12.6046H86.8093V13.5583C87.0683 13.1753 87.4268 12.8703 87.8461 12.6764C88.2886 12.4859 88.7666 12.3923 89.2483 12.402H89.2417ZM95.2937 12.402C95.833 12.3878 96.3677 12.5043 96.8524 12.7417C97.2788 12.9614 97.6526 13.2712 97.948 13.6497V8.36499H99.7936V21.0837H97.948V20.0712C97.6531 20.4485 97.2791 20.7563 96.8524 20.9727C96.3667 21.2066 95.8324 21.3209 95.2937 21.3059C94.1642 21.3179 93.0796 20.8642 92.2937 20.0515C91.897 19.6468 91.5844 19.1673 91.3742 18.6405C90.9391 17.4872 90.9391 16.2142 91.3742 15.0607C91.5785 14.5356 91.8844 14.0561 92.2742 13.6497C93.0599 12.837 94.1447 12.3835 95.2741 12.3955L95.2937 12.402ZM101.946 20.3063C102.019 20.3046 102.092 20.3179 102.161 20.3455C102.226 20.373 102.286 20.4129 102.337 20.4632C102.386 20.5116 102.426 20.5693 102.454 20.6329C102.512 20.7664 102.512 20.9175 102.454 21.051C102.426 21.1146 102.386 21.1722 102.337 21.2208C102.286 21.2707 102.226 21.3107 102.161 21.3384C102.093 21.3687 102.02 21.3843 101.946 21.3841C101.726 21.3873 101.526 21.2587 101.437 21.0576C101.38 20.9241 101.38 20.7729 101.437 20.6395C101.493 20.5084 101.598 20.405 101.73 20.352C101.8 20.3217 101.876 20.3061 101.952 20.3063H101.946ZM101.946 21.2666C102.002 21.2673 102.057 21.2562 102.109 21.234C102.157 21.2118 102.202 21.1808 102.239 21.1425C102.401 20.9774 102.401 20.7132 102.239 20.548C102.202 20.5095 102.158 20.4784 102.109 20.4566C102.055 20.4454 101.999 20.4454 101.946 20.4566C101.892 20.446 101.836 20.446 101.783 20.4566C101.665 20.5137 101.581 20.6225 101.555 20.7507C101.53 20.879 101.566 21.0119 101.652 21.1098C101.689 21.1484 101.734 21.1792 101.783 21.2013C101.834 21.233 101.892 21.253 101.952 21.2601L101.946 21.2666ZM101.946 20.6133C101.999 20.6103 102.053 20.6265 102.096 20.659C102.131 20.6878 102.15 20.7313 102.148 20.7766C102.15 20.8155 102.136 20.8535 102.109 20.8812C102.076 20.9114 102.035 20.9298 101.991 20.9334L102.154 21.1228H102.024L101.874 20.9334H101.828V21.1228H101.724V20.6199L101.946 20.6133ZM101.822 20.7048V20.8354H101.946C101.967 20.8416 101.99 20.8416 102.011 20.8354C102.019 20.8189 102.019 20.7996 102.011 20.7833C102.02 20.7671 102.02 20.7471 102.011 20.7309C101.989 20.725 101.967 20.725 101.946 20.7309L101.822 20.7048ZM95.4827 14.1723C95.1149 14.1661 94.7501 14.2396 94.4132 14.3879C94.1107 14.5244 93.8398 14.7224 93.6176 14.9693C93.3965 15.2217 93.226 15.5145 93.1154 15.8316C92.8799 16.5129 92.8799 17.2538 93.1154 17.9351C93.226 18.2522 93.3965 18.5449 93.6176 18.7974C93.8396 19.0444 94.1107 19.2424 94.4132 19.3786C95.0894 19.6611 95.8501 19.6611 96.5263 19.3786C96.8296 19.2462 97.1026 19.0529 97.3283 18.8105C97.5789 18.551 97.7723 18.2415 97.8958 17.9024C98.143 17.2052 98.143 16.4439 97.8958 15.7467C97.7795 15.4299 97.6022 15.1392 97.3741 14.8909C97.1482 14.6487 96.8752 14.4552 96.5719 14.3226C96.2387 14.188 95.8808 14.1257 95.5219 14.1397L95.4827 14.1723Z" fill="#EB001B"/>
</svg>
