<svg width="108" height="48" viewBox="0 0 108 48" fill="none" xmlns="http://www.w3.org/2000/svg">
<path fill-rule="evenodd" clip-rule="evenodd" d="M45.6945 25.1528L41.5188 36.4019L41.0735 34.1164C40.0337 31.3136 37.7822 28.3733 35.1602 27.1817L38.9802 41.6264L43.496 41.6243L50.2115 25.1528H45.6945Z" fill="#1B548E"/>
<path fill-rule="evenodd" clip-rule="evenodd" d="M49.2734 41.6435L51.9428 25.1375H56.2088L53.5375 41.6435H49.2734Z" fill="#1B548E"/>
<path fill-rule="evenodd" clip-rule="evenodd" d="M69.0134 25.5441C68.1704 25.2114 66.8404 24.8496 65.1902 24.8496C60.97 24.8496 58.0052 27.0905 57.9793 30.2958C57.9521 32.6699 60.0994 33.9941 61.7134 34.7828C63.3793 35.5899 63.9356 36.108 63.9304 36.8301C63.9142 37.9359 62.5976 38.4401 61.3741 38.4401C59.6689 38.4401 58.76 38.1912 57.362 37.5773L56.8079 37.314L56.2109 41.0081C57.209 41.4678 59.0516 41.8664 60.9668 41.8869C65.4454 41.8869 68.3593 39.6714 68.3939 36.2504C68.4119 34.3673 67.2721 32.9418 64.8085 31.7651C63.3214 30.9999 62.4017 30.4928 62.4152 29.7173C62.4166 29.0324 63.1868 28.2984 64.8596 28.2984C66.2569 28.2752 67.2616 28.5953 68.0524 28.9329L68.4329 29.1221L69.0134 25.5441ZM79.9549 25.1544H76.6592C75.6373 25.1544 74.8714 25.4453 74.4203 26.5242L68.0875 41.6483H72.5681C72.5681 41.6483 73.3007 39.6128 73.4665 39.1665C73.9552 39.1665 78.307 39.1766 78.9283 39.1766C79.0601 39.7521 79.4477 41.6483 79.4477 41.6483H83.4094L79.9549 25.1544ZM74.6939 35.7905C75.0481 34.8432 76.3934 31.1769 76.3934 31.1769C76.3672 31.2216 76.7434 30.2222 76.9607 29.6043L77.2448 31.0271C77.2448 31.0271 78.0646 34.9659 78.2356 35.7905H74.6939Z" fill="#1B548E"/>
<path fill-rule="evenodd" clip-rule="evenodd" d="M37.6453 25.1448H30.7648L30.7246 25.429C36.0741 26.7958 39.604 30.1521 41.0734 34.1211L39.5781 26.5351C39.3213 25.4916 38.5725 25.1815 37.6453 25.1448Z" fill="#E89F3E"/>
<path fill-rule="evenodd" clip-rule="evenodd" d="M17.8589 21.1563H15.1382L12 7.02451L15.0066 6.52222L17.154 17.5818L22.623 6.6683H25.5111L17.8589 21.1563Z" fill="#1B548E"/>
<path fill-rule="evenodd" clip-rule="evenodd" d="M32.0069 16.5363H25.5194C25.3422 18.5013 26.2563 19.3587 27.8051 19.3587C29.1027 19.3587 30.2442 18.8775 31.4726 18.1041L31.463 20.0691C30.2582 20.8218 28.8659 21.3027 27.2334 21.3027C24.4085 21.3027 22.5428 19.6929 23.1035 16.0549C23.6088 12.7731 25.8819 10.7875 28.5188 10.7875C31.5533 10.7875 32.5623 13.066 32.1213 15.9301C32.0894 16.1391 32.0292 16.3899 32.0069 16.5363ZM28.1891 12.5226C27.1844 12.5226 26.2457 13.3165 25.803 14.9684H29.8208C29.8949 13.4002 29.4026 12.5226 28.1891 12.5226ZM36.2355 15.303L35.3435 21.0937H32.8325L34.3878 10.9959H36.5226L36.524 13.024C37.374 11.8534 38.5301 10.8711 40.1121 10.7875L40.1267 13.275C38.541 13.3796 37.1145 14.2156 36.2355 15.303ZM40.0937 21.0937L41.6496 10.9959H44.1606L42.6053 21.0937H40.0937ZM43.187 9.30289C42.3501 9.30289 41.7705 8.71737 41.8994 7.88136C42.0314 7.02432 42.7946 6.4178 43.6314 6.4178C44.4477 6.4178 45.0237 7.02432 44.8919 7.88136C44.7629 8.71737 44.0033 9.30289 43.187 9.30289ZM51.1155 8.23653C50.2572 8.23653 49.739 8.61271 49.6005 9.51222L49.3716 10.9959H51.297L51.2952 13.0446H49.056L47.8158 21.0937H45.3258L46.566 13.0446H45.101L45.4166 10.9959H46.8812L47.1486 9.26085C47.4932 7.02432 49.0451 6.18787 51.1169 6.18787C51.5565 6.18787 51.8849 6.22992 52.13 6.27151L52.1487 8.32017C51.9038 8.27857 51.5337 8.23653 51.1155 8.23653ZM51.1427 21.0937L52.6985 10.9959H55.2095L53.6541 21.0937H51.1427ZM54.2358 9.30289C53.399 9.30289 52.8195 8.71737 52.9484 7.88136C53.0804 7.02432 53.8436 6.4178 54.6804 6.4178C55.4967 6.4178 56.0732 7.02432 55.9412 7.88136C55.8123 8.71737 55.0521 9.30289 54.2358 9.30289ZM64.946 16.5363H58.4583C58.2813 18.5013 59.1953 19.3587 60.744 19.3587C62.0417 19.3587 63.1829 18.8775 64.4115 18.1041L64.4015 20.0691C63.1973 20.8218 61.8045 21.3027 60.1721 21.3027C57.3471 21.3027 55.4817 19.6929 56.042 16.0549C56.5479 12.7731 58.8209 10.7875 61.4577 10.7875C64.4922 10.7875 65.5014 13.066 65.0604 15.9301C65.0279 16.1391 64.9683 16.3899 64.946 16.5363ZM61.1277 12.5226C60.1229 12.5226 59.1843 13.3165 58.742 14.9684H62.7597C62.8338 13.4002 62.3411 12.5226 61.1277 12.5226ZM72.3845 21.0937L72.3906 19.6929C71.5467 20.5503 70.4477 21.3027 69.0453 21.3027C66.9314 21.3027 65.4786 19.7349 66.0033 16.3269C66.5829 12.5642 68.9124 10.8917 71.256 10.8917C72.2192 10.8917 72.968 11.059 73.5422 11.2679L74.2926 6.39677L76.8651 6L74.54 21.0937H72.3845ZM73.2234 13.3376C72.6408 13.0446 72.1818 12.8983 71.324 12.8983C70.0053 12.8983 68.8787 13.9647 68.5371 16.1811C68.2347 18.1456 68.93 19.0657 70.0391 19.0657C70.9596 19.0657 71.7549 18.5227 72.5532 17.6862L73.2234 13.3376ZM82.2326 21.1888C81.0437 21.1888 80.075 20.9983 79.1727 20.6821L80.8245 9.96154L82.7727 9.66025L82.0581 14.3002C82.6277 13.7935 83.4189 13.2868 84.386 13.2868C86.0027 13.2868 87.0855 14.4907 86.6901 17.0556C86.256 19.8741 84.5157 21.1888 82.2326 21.1888ZM83.6358 14.9649C83.0016 14.9649 82.365 15.3928 81.8018 15.9634L81.2673 19.431C81.6422 19.5733 81.9017 19.6368 82.4405 19.6368C83.6451 19.6368 84.4868 18.9085 84.7551 17.1664C84.9822 15.6936 84.492 14.9649 83.6358 14.9649ZM91.1717 21.5055C90.1998 23.3899 89.238 23.9758 87.7637 23.9758C87.4305 23.9758 87.2456 23.9439 87.0785 23.8966L87.0662 22.3288C87.3104 22.3923 87.5721 22.4395 87.9368 22.4395C88.4918 22.4395 88.9745 22.1865 89.298 21.6321L89.55 21.1254L87.9372 13.5876L89.9582 13.3345L90.8942 18.7815L93.4284 13.4453H95.3148L91.1717 21.5055Z" fill="#1B548E"/>
</svg>
